<?xml version="1.0" encoding="iso-8859-1"?>
<!-- Generator: Adobe Illustrator 19.0.0, SVG Export Plug-In . SVG Version: 6.00 Build 0)  -->
<svg version="1.1" id="Layer_1" xmlns="http://www.w3.org/2000/svg" xmlns:xlink="http://www.w3.org/1999/xlink" x="0px" y="0px"
	 viewBox="0 0 363.427 363.427" style="enable-background:new 0 0 363.427 363.427;" xml:space="preserve">
<path id="XMLID_2_" d="M196.714,154.504v-29.218c2.039,0.108,4.198,0.174,6.463,0.174c0,0,0.003,0,0.005,0
	c25.746,0,47.549-8.194,63.051-23.696c27.059-27.059,22.021-80.204,21.358-86.175c-0.692-6.231-5.188-11.375-11.271-12.896
	C275.217,2.418,265.141,0,251.22,0c-25.75,0-47.555,8.193-63.058,23.696c-2.314,2.315-4.465,4.765-6.449,7.346
	c-1.984-2.581-4.136-5.031-6.45-7.347C155.678,4.111,130.163,0,112.207,0C98.283,0,88.21,2.418,87.106,2.693
	c-6.082,1.521-10.577,6.664-11.27,12.896c-0.663,5.971-5.7,59.117,21.358,86.175c19.585,19.585,45.1,23.696,63.056,23.696
	c2.265,0,4.424-0.066,6.463-0.174v29.218c-50.816,7.301-90,51.119-90,103.923c0,57.897,47.102,105,105,105s105-47.103,105-105
	C286.714,205.624,247.53,161.805,196.714,154.504z M255.204,243.427h-28.878c-0.946-18.186-3.643-35.798-8.227-50.551
	C236.911,203.36,250.775,221.694,255.204,243.427z M167.145,273.427h29.137c-1.908,32.549-9.728,52.49-14.568,58.639
	C176.873,325.917,169.053,305.976,167.145,273.427z M167.145,243.427c1.908-32.549,9.728-52.489,14.568-58.638
	c4.841,6.148,12.66,26.089,14.568,58.638H167.145z M251.22,30c2.559,0,4.947,0.111,7.093,0.278
	c0.05,15.609-2.32,39.299-13.294,50.273c-12.323,12.323-29.553,14.909-41.838,14.909c0,0-0.003,0-0.004,0
	c-2.316,0-4.482-0.094-6.464-0.235V68.01c2.376-9.274,6.616-17.053,12.663-23.101C221.7,32.586,238.933,30,251.22,30z
	 M118.408,80.551c-10.976-10.976-13.345-34.674-13.295-50.272c2.146-0.167,4.535-0.279,7.094-0.279
	c12.287,0,29.521,2.586,41.843,14.908c6.048,6.049,10.288,13.828,12.664,23.102v27.215c-1.982,0.142-4.148,0.235-6.463,0.235
	C147.964,95.461,130.731,92.874,118.408,80.551z M145.329,192.876c-4.584,14.753-7.281,32.366-8.228,50.551h-28.878
	C112.652,221.694,126.516,203.36,145.329,192.876z M108.223,273.427h28.878c0.946,18.185,3.644,35.798,8.228,50.552
	C126.516,313.496,112.652,295.161,108.223,273.427z M218.098,323.979c4.584-14.753,7.281-32.366,8.227-50.552h28.878
	C250.775,295.161,236.911,313.496,218.098,323.979z"/>
<g>
</g>
<g>
</g>
<g>
</g>
<g>
</g>
<g>
</g>
<g>
</g>
<g>
</g>
<g>
</g>
<g>
</g>
<g>
</g>
<g>
</g>
<g>
</g>
<g>
</g>
<g>
</g>
<g>
</g>
</svg>
