<?xml version="1.0" encoding="iso-8859-1"?>
<!-- Generator: Adobe Illustrator 19.0.0, SVG Export Plug-In . SVG Version: 6.00 Build 0)  -->
<svg version="1.1" id="Layer_1" xmlns="http://www.w3.org/2000/svg" xmlns:xlink="http://www.w3.org/1999/xlink" x="0px" y="0px"
	 viewBox="0 0 330 330" style="enable-background:new 0 0 330 330;" xml:space="preserve">
<g id="XMLID_475_">
	<path id="XMLID_476_" d="M315,210h-20h-40v-35.353c3.537,0.819,7.193,1.249,10.916,1.249c26.505,0,48.068-21.563,48.068-48.068
		c0-4.14-0.527-8.223-1.557-12.166C323.31,106.678,330,93.104,330,78.534c0-25.544-20.027-46.498-45.205-47.983
		C277.81,12.574,260.387,0,240,0c-20.387,0-37.809,12.574-44.794,30.551c-11.67,0.689-22.23,5.565-30.206,13.138
		c-7.976-7.573-18.534-12.449-30.205-13.138C127.81,12.574,110.387,0,90,0C69.613,0,52.191,12.574,45.206,30.551
		C20.028,32.036,0,52.99,0,78.534c0,14.571,6.69,28.144,17.574,37.129c-1.029,3.942-1.557,8.024-1.557,12.165
		c0,26.505,21.563,48.068,48.067,48.068c3.723,0,7.379-0.43,10.915-1.248V210H35H15c-8.284,0-15,6.716-15,15c0,8.284,6.716,15,15,15
		h5.998l5.239,76.031C26.779,323.897,33.317,330,41.201,330h241.899c7.524,0,13.884-5.575,14.871-13.034L308.148,240H315
		c8.284,0,15-6.716,15-15C330,216.716,323.284,210,315,210z M198.068,60.466c1.636,0,3.275,0.226,4.87,0.67
		c4.412,1.229,9.147,0.377,12.853-2.318c3.705-2.695,5.976-6.936,6.164-11.514C222.354,37.601,230.28,30,240,30
		c9.72,0,17.647,7.601,18.046,17.304c0.188,4.578,2.458,8.819,6.164,11.514c3.706,2.695,8.438,3.55,12.853,2.318
		c1.595-0.445,3.234-0.67,4.87-0.67c9.962,0,18.067,8.105,18.067,18.068c0,7.513-4.73,14.321-11.77,16.94
		c-4.294,1.598-7.624,5.071-9.038,9.43c-1.414,4.358-0.758,9.124,1.78,12.939c1.971,2.961,3.012,6.413,3.012,9.985
		c0,9.963-8.105,18.068-18.068,18.068c-5.542,0-10.705-2.501-14.164-6.863c-0.025-0.032-0.055-0.059-0.081-0.09
		c-0.315-0.39-0.647-0.765-0.999-1.122c-0.021-0.021-0.04-0.046-0.061-0.067c-0.372-0.372-0.767-0.721-1.176-1.053
		c-0.123-0.099-0.252-0.187-0.377-0.282c-0.298-0.227-0.601-0.446-0.916-0.651c-0.146-0.094-0.296-0.181-0.445-0.271
		c-0.311-0.186-0.628-0.363-0.953-0.527c-0.152-0.077-0.305-0.15-0.459-0.222c-0.337-0.156-0.681-0.298-1.031-0.429
		c-0.151-0.057-0.301-0.114-0.454-0.166c-0.365-0.124-0.738-0.228-1.115-0.324c-0.147-0.037-0.292-0.08-0.44-0.113
		c-0.397-0.088-0.802-0.152-1.21-0.208c-0.133-0.018-0.264-0.046-0.397-0.061c-0.538-0.059-1.083-0.093-1.636-0.093c0,0,0,0,0,0l0,0
		c-0.001,0-0.002,0-0.004,0c-0.552,0-1.095,0.035-1.631,0.093c-0.137,0.015-0.27,0.044-0.406,0.063
		c-0.405,0.055-0.807,0.119-1.201,0.206c-0.151,0.033-0.299,0.077-0.448,0.115c-0.374,0.095-0.744,0.199-1.107,0.321
		c-0.155,0.052-0.308,0.111-0.461,0.169c-0.348,0.13-0.689,0.271-1.023,0.426c-0.157,0.073-0.313,0.147-0.467,0.225
		c-0.322,0.163-0.635,0.338-0.943,0.522c-0.152,0.091-0.305,0.18-0.455,0.276c-0.311,0.202-0.61,0.419-0.904,0.643
		c-0.128,0.097-0.261,0.188-0.387,0.289c-0.408,0.331-0.801,0.679-1.172,1.049c-0.029,0.029-0.055,0.063-0.083,0.092
		c-0.343,0.35-0.669,0.716-0.977,1.098c-0.026,0.032-0.056,0.06-0.082,0.092c-3.458,4.361-8.621,6.862-14.163,6.862
		c-9.962,0-18.067-8.105-18.067-18.068c0-3.573,1.041-7.025,3.01-9.983c2.54-3.815,3.196-8.581,1.782-12.94
		c-1.414-4.359-4.743-7.833-9.038-9.431C184.731,92.855,180,86.047,180,78.534C180,68.571,188.106,60.466,198.068,60.466z
		 M46.018,127.828c0-3.573,1.041-7.025,3.01-9.983c2.54-3.815,3.196-8.581,1.782-12.94c-1.414-4.359-4.743-7.833-9.038-9.431
		C34.731,92.855,30,86.047,30,78.534c0-9.963,8.106-18.068,18.068-18.068c1.636,0,3.275,0.226,4.87,0.67
		c4.412,1.229,9.146,0.377,12.853-2.318c3.705-2.695,5.976-6.936,6.164-11.514C72.354,37.601,80.28,30,90,30
		c9.72,0,17.647,7.601,18.046,17.304c0.188,4.578,2.458,8.819,6.164,11.514c3.706,2.695,8.439,3.55,12.853,2.318
		c1.595-0.445,3.234-0.67,4.87-0.67c9.962,0,18.067,8.105,18.067,18.068c0,7.513-4.73,14.321-11.77,16.94
		c-4.294,1.598-7.624,5.071-9.038,9.43c-1.414,4.358-0.758,9.124,1.78,12.939c1.971,2.961,3.012,6.413,3.012,9.985
		c0,9.963-8.105,18.068-18.068,18.068c-5.542,0-10.705-2.501-14.164-6.863c-0.025-0.032-0.055-0.059-0.081-0.09
		c-0.315-0.39-0.647-0.765-0.999-1.122c-0.021-0.021-0.04-0.046-0.061-0.067c-0.372-0.372-0.767-0.721-1.176-1.053
		c-0.123-0.099-0.252-0.187-0.377-0.282c-0.298-0.227-0.601-0.446-0.916-0.651c-0.146-0.094-0.296-0.181-0.445-0.271
		c-0.311-0.186-0.628-0.363-0.953-0.527c-0.152-0.077-0.305-0.15-0.459-0.222c-0.337-0.156-0.681-0.298-1.031-0.429
		c-0.151-0.057-0.301-0.114-0.454-0.166c-0.365-0.124-0.738-0.228-1.115-0.324c-0.147-0.037-0.292-0.08-0.44-0.113
		c-0.397-0.088-0.802-0.152-1.21-0.208c-0.133-0.018-0.264-0.046-0.397-0.061c-0.538-0.059-1.083-0.093-1.636-0.093c0,0,0,0,0,0l0,0
		c-0.001,0-0.002,0-0.004,0c-0.552,0-1.095,0.035-1.631,0.093c-0.137,0.015-0.271,0.044-0.406,0.063
		c-0.405,0.055-0.807,0.119-1.201,0.206c-0.151,0.033-0.299,0.077-0.448,0.115c-0.374,0.095-0.744,0.199-1.106,0.321
		c-0.155,0.052-0.308,0.111-0.461,0.169c-0.348,0.13-0.689,0.271-1.023,0.426c-0.157,0.073-0.313,0.147-0.467,0.225
		c-0.322,0.163-0.635,0.338-0.943,0.522c-0.152,0.091-0.305,0.18-0.455,0.276c-0.311,0.202-0.61,0.419-0.904,0.643
		c-0.128,0.097-0.261,0.188-0.387,0.289c-0.408,0.331-0.801,0.679-1.172,1.049c-0.029,0.029-0.055,0.063-0.083,0.092
		c-0.343,0.35-0.669,0.716-0.977,1.098c-0.026,0.032-0.056,0.06-0.082,0.092c-3.458,4.361-8.621,6.862-14.163,6.862
		C54.123,145.896,46.018,137.791,46.018,127.828z M105,174.648c3.537,0.819,7.193,1.249,10.916,1.249
		c26.505,0,48.068-21.563,48.068-48.068c0-4.14-0.527-8.223-1.557-12.166c0.89-0.735,1.741-1.511,2.573-2.305
		c0.832,0.794,1.684,1.57,2.574,2.305c-1.029,3.942-1.557,8.024-1.557,12.165c0,26.505,21.563,48.068,48.067,48.068
		c3.723,0,7.379-0.43,10.915-1.248V210H105V174.648z M269.953,300H55.203l-4.134-60h226.817L269.953,300z"/>
	<circle id="XMLID_483_" cx="90" cy="91.948" r="15"/>
	<circle id="XMLID_484_" cx="240" cy="91.948" r="15"/>
</g>
<g>
</g>
<g>
</g>
<g>
</g>
<g>
</g>
<g>
</g>
<g>
</g>
<g>
</g>
<g>
</g>
<g>
</g>
<g>
</g>
<g>
</g>
<g>
</g>
<g>
</g>
<g>
</g>
<g>
</g>
</svg>
