<?xml version="1.0" encoding="iso-8859-1"?>
<!-- Generator: Adobe Illustrator 19.0.0, SVG Export Plug-In . SVG Version: 6.00 Build 0)  -->
<svg version="1.1" id="Layer_1" xmlns="http://www.w3.org/2000/svg" xmlns:xlink="http://www.w3.org/1999/xlink" x="0px" y="0px"
	 viewBox="0 0 330 330" style="enable-background:new 0 0 330 330;" xml:space="preserve">
<path id="XMLID_470_" d="M242.986,222.549C229.544,199.218,206.388,183.2,180,178.753v-43.66
	c2.396-11.307,11.763-66.824-25.606-104.193C130.921,7.427,100.197,2.5,78.557,2.5c-17.166,0-29.802,3.109-30.331,3.241
	c-6.083,1.521-10.579,6.664-11.271,12.896c-0.079,0.711-1.914,17.653-0.03,38.37c2.672,29.395,11.267,51.539,25.545,65.817
	c23.473,23.473,54.197,28.4,75.837,28.4c4.208,0,8.141-0.188,11.693-0.472v28c-26.388,4.447-49.544,20.465-62.986,43.795
	C38.765,224.13,0,263.873,0,312.5c0,8.284,6.716,15,15,15h300c8.284,0,15-6.716,15-15C330,263.873,291.235,224.13,242.986,222.549z
	 M83.683,101.611C68.221,86.149,65.595,53.26,66.085,33.169c3.537-0.378,7.784-0.669,12.473-0.669
	c15.971,0,38.413,3.403,54.624,19.613c21.07,21.07,20.596,52.712,18.792,68.309c-3.757,0.44-8.437,0.803-13.665,0.803
	C122.335,121.224,99.894,117.822,83.683,101.611z M31.898,297.5c6.678-25.85,30.195-45,58.102-45c1.611,0,3.268,0.068,4.925,0.203
	c6.412,0.516,12.428-3.099,14.979-8.996C119.419,221.712,141.045,207.5,165,207.5s45.582,14.212,55.096,36.206
	c2.552,5.897,8.571,9.512,14.979,8.996c1.657-0.135,3.314-0.203,4.925-0.203c27.906,0,51.425,19.15,58.102,45H31.898z"/>
<g>
</g>
<g>
</g>
<g>
</g>
<g>
</g>
<g>
</g>
<g>
</g>
<g>
</g>
<g>
</g>
<g>
</g>
<g>
</g>
<g>
</g>
<g>
</g>
<g>
</g>
<g>
</g>
<g>
</g>
</svg>
