<?xml version="1.0" encoding="iso-8859-1"?>
<!-- Generator: Adobe Illustrator 19.0.0, SVG Export Plug-In . SVG Version: 6.00 Build 0)  -->
<svg version="1.1" id="Layer_1" xmlns="http://www.w3.org/2000/svg" xmlns:xlink="http://www.w3.org/1999/xlink" x="0px" y="0px"
	 viewBox="0 0 330 330" style="enable-background:new 0 0 330 330;" xml:space="preserve">
<path id="XMLID_110_" d="M328.238,226.49l-105-197.087c-2.605-4.892-7.696-7.947-13.238-7.947c-5.542,0-10.633,3.056-13.238,7.947
	l-56.673,106.378l-31.839-59.983C105.647,70.895,100.55,67.83,95,67.83s-10.647,3.065-13.249,7.967l-80,150.713
	c-2.468,4.65-2.318,10.252,0.394,14.763c2.713,4.511,7.591,7.27,12.855,7.27h65v45c0,8.284,6.716,15,15,15s15-6.716,15-15v-45h65
	c0.006-0.001,0.015-0.001,0.02,0H195v45c0,8.284,6.716,15,15,15c8.284,0,15-6.716,15-15v-45h90c5.268,0,10.149-2.763,12.86-7.28
	C330.572,236.747,330.714,231.139,328.238,226.49z M39.944,218.543L95,114.823l31.803,59.916c0.008,0.015,0.017,0.03,0.024,0.046
	l23.228,43.758H39.944z M184.02,218.543l-26.967-50.803L210,68.358l80.013,150.185H184.02z"/>
<g>
</g>
<g>
</g>
<g>
</g>
<g>
</g>
<g>
</g>
<g>
</g>
<g>
</g>
<g>
</g>
<g>
</g>
<g>
</g>
<g>
</g>
<g>
</g>
<g>
</g>
<g>
</g>
<g>
</g>
</svg>
