<?xml version="1.0" encoding="iso-8859-1"?>
<!-- Generator: Adobe Illustrator 19.0.0, SVG Export Plug-In . SVG Version: 6.00 Build 0)  -->
<svg version="1.1" id="Layer_1" xmlns="http://www.w3.org/2000/svg" xmlns:xlink="http://www.w3.org/1999/xlink" x="0px" y="0px"
	 viewBox="0 0 330 330" style="enable-background:new 0 0 330 330;" xml:space="preserve">
<path id="XMLID_231_" d="M290,125V15c0-6.067-3.654-11.537-9.26-13.858c-5.605-2.32-12.057-1.039-16.347,3.252L220,48.788
	L175.606,4.395c-2.813-2.813-6.628-4.393-10.606-4.393L55,0.002c-6.067,0-11.536,3.655-13.858,9.26
	c-2.321,5.605-1.038,12.057,3.252,16.347l44.394,44.393l-44.394,44.392C41.58,117.206,40,121.022,40,125v110.001
	c0,6.067,3.654,11.537,9.26,13.858c1.856,0.768,3.805,1.142,5.737,1.142c3.903,0,7.74-1.524,10.609-4.394L110,201.213l40,39.999V315
	c0,8.284,6.716,15,15,15c8.284,0,15-6.716,15-15v-65.001h95c6.067,0,11.536-3.655,13.858-9.26
	c2.321-5.605,1.038-12.057-3.252-16.347L241.213,180l44.393-44.393C288.42,132.794,290,128.979,290,125z M154.394,135.607
	C151.561,132.774,150,129.007,150,125c0-4.006,1.561-7.773,4.393-10.605c0.002-0.001,0.003-0.003,0.004-0.005
	c2.835-2.83,6.6-4.39,10.604-4.39c4.002,0,7.766,1.558,10.6,4.387c0.003,0.002,0.005,0.004,0.007,0.007
	c0.001,0.001,0.002,0.002,0.003,0.003C178.44,117.229,180,120.994,180,125c0,4.007-1.561,7.773-4.393,10.606v0.001
	c-0.001,0-0.001,0.001-0.001,0.001C172.774,138.44,169.008,140,165,140C160.993,140,157.227,138.44,154.394,135.607z
	 M158.787,30.002L198.786,70L184.41,84.376C178.426,81.511,171.829,80,165,80s-13.426,1.511-19.41,4.376l-24.981-24.982
	c-0.059-0.059-0.118-0.118-0.179-0.176L91.213,30.002H158.787z M70.002,131.213L110,91.215l14.375,14.375
	C121.512,111.573,120,118.171,120,125c0,6.83,1.512,13.428,4.376,19.412l-24.982,24.982c-0.003,0.003-0.006,0.007-0.009,0.01
	l-29.384,29.383L70.002,131.213z M171.213,220l-39.999-39.999l14.376-14.376C151.572,168.489,158.171,170,165,170
	c6.83,0,13.429-1.511,19.412-4.375L238.787,220L171.213,220z M260,118.787l-40,39.999l-14.375-14.376
	C208.488,138.428,210,131.83,210,125c0-6.83-1.512-13.428-4.376-19.411l24.982-24.981l-0.001-0.001L260,51.213V118.787z"/>
<g>
</g>
<g>
</g>
<g>
</g>
<g>
</g>
<g>
</g>
<g>
</g>
<g>
</g>
<g>
</g>
<g>
</g>
<g>
</g>
<g>
</g>
<g>
</g>
<g>
</g>
<g>
</g>
<g>
</g>
</svg>
