<?xml version="1.0" encoding="iso-8859-1"?>
<!-- Generator: Adobe Illustrator 19.0.0, SVG Export Plug-In . SVG Version: 6.00 Build 0)  -->
<svg version="1.1" id="Layer_1" xmlns="http://www.w3.org/2000/svg" xmlns:xlink="http://www.w3.org/1999/xlink" x="0px" y="0px"
	 viewBox="0 0 330 330" style="enable-background:new 0 0 330 330;" xml:space="preserve">
<path id="XMLID_464_" d="M242.986,222.553c-13.442-23.331-36.599-39.349-62.986-43.795v-27.986
	c3.546,0.282,7.481,0.467,11.705,0.467c22.285,0,52.572-5.157,75.825-28.41c14.278-14.278,22.873-36.422,25.545-65.817
	c1.884-20.716,0.049-37.659-0.03-38.37c-0.692-6.231-5.188-11.375-11.27-12.896c-2.644-0.661-65.278-15.731-106.168,25.159
	c-3.934,3.934-7.47,8.199-10.605,12.777c-3.03-4.42-6.538-8.708-10.607-12.777c-23.473-23.473-54.196-28.4-75.837-28.4
	c-17.165,0-29.801,3.109-30.331,3.241c-6.083,1.52-10.578,6.664-11.271,12.896c-0.079,0.711-1.913,17.654-0.03,38.37
	c2.673,29.395,11.267,51.539,25.545,65.817c23.474,23.473,54.197,28.4,75.838,28.4c4.208,0,8.141-0.188,11.692-0.472v28
	c-26.388,4.447-49.544,20.465-62.986,43.795C38.765,224.134,0,263.878,0,312.505c0,8.284,6.716,15,15,15h300c8.284,0,15-6.716,15-15
	C330,263.878,291.235,224.134,242.986,222.553z M196.819,52.118c20.539-20.538,51.123-20.606,67.096-18.925
	c0.488,20.102-2.142,52.967-17.598,68.422c-19.35,19.35-47.61,20.53-64.19,19.193c0.984-10.278,1.248-24.414-1.721-39.49
	C183.582,69.662,189.091,59.847,196.819,52.118z M83.683,101.616C68.222,86.153,65.595,53.264,66.085,33.174
	c3.536-0.377,7.783-0.669,12.472-0.669c15.972,0,38.413,3.403,54.624,19.613c21.07,21.07,20.596,52.712,18.791,68.309
	c-3.757,0.44-8.436,0.803-13.664,0.803C122.335,121.229,99.894,117.826,83.683,101.616z M31.898,297.505
	c6.677-25.85,30.195-45,58.102-45c1.611,0,3.269,0.068,4.924,0.202c6.409,0.526,12.43-3.098,14.98-8.996
	c9.514-21.995,31.141-36.207,55.096-36.207s45.582,14.212,55.096,36.207c2.551,5.897,8.573,9.512,14.979,8.996
	c1.659-0.134,3.316-0.203,4.926-0.203c27.906,0,51.425,19.15,58.102,45H31.898z"/>
<g>
</g>
<g>
</g>
<g>
</g>
<g>
</g>
<g>
</g>
<g>
</g>
<g>
</g>
<g>
</g>
<g>
</g>
<g>
</g>
<g>
</g>
<g>
</g>
<g>
</g>
<g>
</g>
<g>
</g>
</svg>
