<?xml version="1.0" encoding="iso-8859-1"?>
<!-- Generator: Adobe Illustrator 19.0.0, SVG Export Plug-In . SVG Version: 6.00 Build 0)  -->
<svg version="1.1" id="Layer_1" xmlns="http://www.w3.org/2000/svg" xmlns:xlink="http://www.w3.org/1999/xlink" x="0px" y="0px"
	 viewBox="0 0 330.009 330.009" style="enable-background:new 0 0 330.009 330.009;" xml:space="preserve">
<path id="XMLID_486_" d="M293.049,16.146c-0.692-6.231-5.188-11.374-11.27-12.895c-2.647-0.661-65.278-15.732-106.168,25.159
	c-3.934,3.934-7.47,8.199-10.605,12.777c-3.03-4.42-6.538-8.707-10.607-12.777c-23.473-23.473-54.196-28.4-75.837-28.4
	c-17.166,0-29.802,3.109-30.331,3.241c-6.083,1.52-10.579,6.664-11.271,12.896c-0.079,0.711-1.914,17.653-0.03,38.37
	c2.672,29.395,11.267,51.539,25.545,65.817c23.473,23.473,54.197,28.4,75.837,28.4c4.208,0,8.141-0.188,11.693-0.472v26.747h-47.5
	h-22.5c-8.284,0-15,6.716-15,15c0,8.284,6.716,15,15,15h9.074l12.406,111.656c0.844,7.597,7.265,13.344,14.908,13.344h97.223
	c7.643,0,14.064-5.747,14.908-13.344l12.406-111.656h9.074c8.284,0,15-6.716,15-15c0-8.284-6.716-15-15-15h-22.5h-47.5v-26.733
	c3.546,0.282,7.482,0.467,11.705,0.467c22.285,0,52.572-5.157,75.825-28.41c14.278-14.278,22.873-36.422,25.545-65.817
	C294.963,33.8,293.129,16.858,293.049,16.146z M200.19,300.009h-70.371l-10.556-95h91.482L200.19,300.009z M83.687,99.12
	C68.225,83.658,65.599,50.769,66.089,30.678c3.537-0.378,7.784-0.669,12.473-0.669c15.971,0,38.413,3.403,54.624,19.613
	c21.07,21.07,20.596,52.712,18.792,68.309c-3.757,0.44-8.437,0.803-13.665,0.803C122.34,118.734,99.898,115.331,83.687,99.12z
	 M246.322,99.12c-19.35,19.349-47.61,20.529-64.19,19.193c0.985-10.279,1.248-24.415-1.721-39.491
	c3.177-11.656,8.685-21.471,16.413-29.199c20.539-20.539,51.12-20.605,67.096-18.925C264.408,50.8,261.777,83.665,246.322,99.12z"/>
<g>
</g>
<g>
</g>
<g>
</g>
<g>
</g>
<g>
</g>
<g>
</g>
<g>
</g>
<g>
</g>
<g>
</g>
<g>
</g>
<g>
</g>
<g>
</g>
<g>
</g>
<g>
</g>
<g>
</g>
</svg>
