<?xml version="1.0" encoding="iso-8859-1"?>
<!-- Generator: Adobe Illustrator 19.0.0, SVG Export Plug-In . SVG Version: 6.00 Build 0)  -->
<svg version="1.1" id="Layer_1" xmlns="http://www.w3.org/2000/svg" xmlns:xlink="http://www.w3.org/1999/xlink" x="0px" y="0px"
	 viewBox="0 0 319.474 319.474" style="enable-background:new 0 0 319.474 319.474;" xml:space="preserve">
<g id="XMLID_307_">
	<path id="XMLID_308_" d="M273.769,245.141c-0.952-1.588-23.794-38.9-63.446-38.9c-14.053,0-25.982,4.693-35.586,10.814v-42.408
		c3.536,0.818,7.192,1.248,10.916,1.248c26.504,0,48.066-21.563,48.066-48.068c0-4.141-0.527-8.223-1.557-12.165
		c10.885-8.985,17.574-22.558,17.574-37.129c0-25.544-20.027-46.498-45.204-47.983C197.547,12.574,180.125,0,159.738,0
		s-37.81,12.574-44.795,30.55C89.765,32.036,69.738,52.99,69.738,78.534c0,14.57,6.69,28.144,17.573,37.128
		c-1.03,3.942-1.557,8.025-1.557,12.165c0,26.505,21.564,48.068,48.068,48.068c3.723,0,7.379-0.43,10.916-1.248v42.409
		c-9.604-6.121-21.533-10.814-35.586-10.814c-39.652,0-62.494,37.311-63.447,38.899c-3.226,5.376-2.768,12.191,1.149,17.087
		c3.05,3.813,30.708,37.246,62.298,37.246c14.053,0,25.982-4.693,35.586-10.814v15.814c0,8.284,6.716,15,15,15
		c8.285,0,15-6.716,15-15V286.86c10.232,6.939,22.572,12.614,35.584,12.614c39.654,0,62.495-37.31,63.448-38.898
		C276.62,255.825,276.62,249.891,273.769,245.141z M109.152,269.474c-9.699,0-21.98-8.809-30.97-17.451
		c6.523-7.011,17.397-15.781,30.97-15.781c14.12,0,25.315,9.487,31.732,16.614C134.456,259.996,123.265,269.474,109.152,269.474z
		 M115.753,127.828c0-3.571,1.042-7.024,3.012-9.984c2.539-3.814,3.195-8.58,1.781-12.939c-1.414-4.358-4.743-7.832-9.038-9.43
		c-7.041-2.619-11.771-9.427-11.771-16.94c0-9.963,8.105-18.068,18.067-18.068c1.636,0,3.275,0.226,4.87,0.67
		c4.414,1.231,9.148,0.376,12.853-2.318c3.705-2.695,5.976-6.936,6.164-11.514C142.091,37.601,150.017,30,159.738,30
		s17.646,7.601,18.045,17.304c0.188,4.578,2.459,8.819,6.164,11.515c3.705,2.695,8.439,3.549,12.854,2.317
		c1.594-0.444,3.231-0.67,4.868-0.67c9.963,0,18.068,8.105,18.068,18.068c0,7.513-4.73,14.321-11.771,16.94
		c-4.295,1.598-7.624,5.072-9.038,9.431c-1.413,4.359-0.757,9.125,1.782,12.94c1.969,2.957,3.01,6.409,3.01,9.982
		c0,9.963-8.104,18.068-18.066,18.068c-5.543,0-10.704-2.501-14.163-6.861c-0.024-0.031-0.054-0.058-0.079-0.088
		c-0.316-0.393-0.651-0.771-1.006-1.131c-0.02-0.019-0.035-0.041-0.055-0.06c-0.373-0.373-0.768-0.723-1.178-1.055
		c-0.121-0.097-0.248-0.184-0.371-0.277c-0.3-0.228-0.605-0.45-0.922-0.655c-0.145-0.094-0.294-0.18-0.442-0.269
		c-0.312-0.188-0.63-0.365-0.956-0.53c-0.15-0.076-0.303-0.149-0.457-0.22c-0.338-0.157-0.683-0.299-1.033-0.431
		c-0.15-0.056-0.3-0.114-0.453-0.165c-0.365-0.124-0.738-0.229-1.115-0.324c-0.146-0.038-0.291-0.08-0.439-0.113
		c-0.398-0.087-0.803-0.152-1.211-0.208c-0.133-0.018-0.264-0.046-0.397-0.061c-0.535-0.058-1.078-0.093-1.629-0.093
		c-0.003,0-0.005,0-0.007,0c-0.001,0-0.001,0-0.001,0c-0.554,0-1.099,0.035-1.637,0.093c-0.135,0.015-0.266,0.043-0.4,0.061
		c-0.407,0.055-0.812,0.12-1.208,0.207c-0.149,0.033-0.294,0.076-0.441,0.113c-0.376,0.095-0.749,0.2-1.114,0.323
		c-0.153,0.052-0.303,0.11-0.454,0.166c-0.351,0.131-0.694,0.273-1.032,0.43c-0.155,0.071-0.307,0.145-0.459,0.221
		c-0.325,0.164-0.641,0.341-0.952,0.527c-0.15,0.089-0.3,0.176-0.447,0.271c-0.314,0.204-0.616,0.423-0.914,0.649
		c-0.126,0.096-0.256,0.184-0.379,0.283c-0.409,0.331-0.803,0.68-1.175,1.052c-0.024,0.024-0.045,0.052-0.069,0.077
		c-0.349,0.354-0.678,0.726-0.99,1.112c-0.026,0.032-0.056,0.059-0.082,0.091c-3.459,4.361-8.622,6.863-14.164,6.863
		C123.859,145.895,115.753,137.79,115.753,127.828z M210.321,269.474c-9.698,0-21.978-8.807-30.966-17.449
		c6.53-7.022,17.397-15.784,30.968-15.784c14.119,0,25.314,9.487,31.73,16.614C235.626,259.996,224.436,269.474,210.321,269.474z"/>
	<circle id="XMLID_334_" cx="159.738" cy="91.948" r="15"/>
</g>
<g>
</g>
<g>
</g>
<g>
</g>
<g>
</g>
<g>
</g>
<g>
</g>
<g>
</g>
<g>
</g>
<g>
</g>
<g>
</g>
<g>
</g>
<g>
</g>
<g>
</g>
<g>
</g>
<g>
</g>
</svg>
