<?xml version="1.0" encoding="iso-8859-1"?>
<!-- Generator: Adobe Illustrator 19.0.0, SVG Export Plug-In . SVG Version: 6.00 Build 0)  -->
<svg version="1.1" id="Layer_1" xmlns="http://www.w3.org/2000/svg" xmlns:xlink="http://www.w3.org/1999/xlink" x="0px" y="0px"
	 viewBox="0 0 330 330" style="enable-background:new 0 0 330 330;" xml:space="preserve">
<g id="XMLID_87_">
	<path id="XMLID_88_" d="M123.395,262.174H40.981l33.12-57.362l3.624,13.481c1.8,6.696,7.858,11.11,14.477,11.11
		c1.288,0,2.6-0.167,3.903-0.518c8-2.15,12.742-10.379,10.592-18.38l-13.014-48.412c-0.016-0.058-0.039-0.112-0.055-0.17
		c-0.117-0.416-0.246-0.828-0.398-1.231c-0.007-0.019-0.012-0.039-0.019-0.058c-0.063-0.166-0.144-0.321-0.213-0.484
		c-0.01-0.023-0.021-0.047-0.031-0.07c-0.105-0.246-0.204-0.493-0.322-0.733c-0.015-0.029-0.026-0.062-0.041-0.092
		c-0.056-0.11-0.123-0.212-0.181-0.321c-0.046-0.086-0.097-0.17-0.144-0.255c-0.115-0.206-0.223-0.414-0.347-0.614
		c-0.021-0.033-0.038-0.069-0.058-0.102c-0.035-0.055-0.077-0.105-0.112-0.159c-0.081-0.124-0.17-0.241-0.254-0.362
		c-0.136-0.197-0.267-0.396-0.413-0.587c-0.146-0.19-0.304-0.367-0.459-0.549c-0.163-0.192-0.32-0.388-0.494-0.573
		c-0.161-0.171-0.334-0.329-0.502-0.492c-0.183-0.177-0.359-0.359-0.553-0.528c-0.201-0.177-0.416-0.336-0.626-0.501
		c-0.174-0.137-0.34-0.281-0.522-0.411c-0.381-0.273-0.776-0.527-1.181-0.764c-0.021-0.013-0.04-0.027-0.061-0.04
		c0-0.001-0.001-0.001-0.002-0.001c-0.43-0.248-0.872-0.473-1.324-0.677c-0.185-0.084-0.373-0.148-0.559-0.224
		c-0.268-0.108-0.534-0.222-0.808-0.315c-0.226-0.076-0.454-0.133-0.681-0.198c-0.243-0.07-0.484-0.146-0.732-0.204
		c-0.229-0.053-0.46-0.088-0.69-0.13c-0.253-0.046-0.503-0.099-0.758-0.132c-0.221-0.029-0.441-0.04-0.662-0.059
		c-0.268-0.023-0.534-0.052-0.804-0.061c-0.219-0.007-0.436,0.004-0.654,0.007c-0.27,0.004-0.539,0-0.811,0.018
		c-0.254,0.017-0.505,0.055-0.757,0.084c-0.232,0.028-0.464,0.044-0.697,0.083c-0.488,0.081-0.971,0.184-1.448,0.312
		c-0.001,0-0.001,0-0.001,0l-0.004,0.001c0,0-0.002,0.001-0.002,0.001l-0.002,0l-48.431,12.998
		c-8.001,2.148-12.747,10.375-10.599,18.376c1.798,6.699,7.857,11.116,14.478,11.116c1.287,0,2.596-0.167,3.898-0.517l13.442-3.607
		L2.01,269.674c-2.68,4.641-2.68,10.359,0,15c2.68,4.641,7.632,7.5,12.991,7.5h108.394c8.284,0,15-6.716,15-15
		C138.395,268.89,131.679,262.174,123.395,262.174z"/>
	<path id="XMLID_89_" d="M327.99,269.674l-54.197-93.872c-4.142-7.174-13.316-9.633-20.49-5.49
		c-7.174,4.142-9.632,13.316-5.49,20.49l41.207,71.372l-66.237-0.001l9.863-9.879c5.853-5.863,5.845-15.36-0.017-21.213
		c-5.864-5.854-15.361-5.846-21.213,0.017l-35.419,35.476c-0.059,0.059-0.107,0.123-0.165,0.183
		c-0.285,0.294-0.563,0.595-0.822,0.911c-0.01,0.013-0.023,0.024-0.033,0.037c-0.001,0.002-0.003,0.003-0.005,0.005
		c-0.136,0.167-0.252,0.346-0.38,0.517c-0.153,0.205-0.312,0.407-0.455,0.62c-0.018,0.026-0.039,0.051-0.057,0.078
		c-0.126,0.191-0.231,0.392-0.347,0.587c-0.118,0.198-0.242,0.391-0.35,0.594c-0.018,0.032-0.04,0.063-0.057,0.097
		c-0.102,0.193-0.182,0.395-0.275,0.592c-0.101,0.213-0.206,0.423-0.297,0.642c-0.014,0.033-0.032,0.065-0.045,0.099
		c-0.077,0.19-0.134,0.387-0.203,0.58c-0.085,0.235-0.174,0.467-0.247,0.707c-0.009,0.029-0.021,0.058-0.03,0.087
		c-0.058,0.197-0.096,0.397-0.146,0.597c-0.062,0.246-0.13,0.489-0.18,0.74c-0.005,0.023-0.012,0.046-0.017,0.07
		c-0.045,0.235-0.068,0.473-0.102,0.71c-0.032,0.224-0.074,0.444-0.096,0.67c-0.002,0.016-0.005,0.031-0.007,0.047
		c-0.027,0.287-0.03,0.575-0.041,0.863c-0.005,0.145-0.02,0.29-0.02,0.435c-0.001,0.044-0.007,0.087-0.007,0.131
		c0,0.001,0,0.003,0,0.004c0,0.001,0,0.003,0,0.004c0,0.276,0.025,0.551,0.04,0.826c0.011,0.204,0.01,0.409,0.03,0.612
		c0.001,0.013,0.004,0.025,0.005,0.039c0.021,0.223,0.064,0.44,0.096,0.66c0.005,0.038,0.011,0.076,0.017,0.113
		c0.031,0.204,0.049,0.411,0.089,0.615c0.004,0.021,0.011,0.042,0.015,0.063c0.05,0.255,0.121,0.501,0.184,0.751
		c0.005,0.02,0.01,0.04,0.015,0.06c0.045,0.177,0.078,0.355,0.13,0.531c0.008,0.027,0.02,0.053,0.028,0.081
		c0.074,0.245,0.166,0.48,0.252,0.72c0.025,0.069,0.047,0.14,0.073,0.209c0.045,0.121,0.079,0.244,0.127,0.363
		c0.013,0.032,0.03,0.062,0.043,0.094c0.092,0.221,0.2,0.433,0.302,0.649c0.067,0.142,0.126,0.285,0.197,0.425
		c0.027,0.054,0.048,0.109,0.076,0.163c0.017,0.032,0.038,0.063,0.055,0.095c0.11,0.205,0.235,0.4,0.354,0.599
		c0.132,0.221,0.256,0.444,0.4,0.659c0.149,0.222,0.315,0.432,0.475,0.645c0.133,0.178,0.257,0.36,0.399,0.533
		c0.313,0.382,0.645,0.749,0.994,1.098c0.001,0.001,0.003,0.003,0.004,0.005c0.001,0.001,0.003,0.003,0.005,0.004l35.469,35.439
		c2.929,2.926,6.765,4.389,10.602,4.389c3.841,0,7.682-1.466,10.611-4.398c5.855-5.86,5.852-15.357-0.009-21.213l-9.845-9.837
		L315,292.174h0c5.358,0,10.311-2.859,12.99-7.5C330.67,280.033,330.67,274.315,327.99,269.674z"/>
	<path id="XMLID_90_" d="M225.334,143.059c0,0,0.002,0.001,0.002,0.001c0.001,0,0.002,0.001,0.003,0.001l0.003,0.001
		c0.009,0.003,0.019,0.004,0.028,0.006c0.188,0.05,0.378,0.09,0.568,0.132c0.125,0.028,0.25,0.063,0.375,0.087
		c0.007,0.001,0.013,0.002,0.02,0.003c0.081,0.016,0.164,0.025,0.245,0.04c0.079,0.014,0.157,0.026,0.235,0.039
		c0.158,0.025,0.315,0.057,0.473,0.077c0.212,0.028,0.423,0.044,0.634,0.063c0.112,0.01,0.224,0.025,0.336,0.033
		c0.262,0.017,0.523,0.022,0.785,0.025c0.06,0.001,0.121,0.006,0.181,0.006c0,0,0,0,0.001,0l0,0c0.046,0,0.092-0.005,0.138-0.006
		c0.322-0.002,0.644-0.016,0.966-0.04c0.128-0.009,0.255-0.024,0.383-0.037c0.253-0.025,0.505-0.057,0.758-0.095
		c0.123-0.019,0.246-0.038,0.369-0.06c0.281-0.05,0.561-0.109,0.84-0.176c0.083-0.02,0.167-0.036,0.25-0.057
		c0.367-0.094,0.732-0.201,1.095-0.324c0.022-0.007,0.043-0.017,0.065-0.024c0.327-0.113,0.651-0.238,0.973-0.375
		c0.032-0.014,0.066-0.024,0.098-0.038c0.074-0.032,0.144-0.071,0.217-0.104c0.233-0.105,0.465-0.215,0.695-0.334
		c0.058-0.029,0.118-0.054,0.175-0.084c0.064-0.034,0.125-0.075,0.189-0.11c0.093-0.051,0.188-0.096,0.28-0.149
		c0.077-0.044,0.145-0.097,0.22-0.143c0.042-0.025,0.085-0.048,0.126-0.073c0.075-0.046,0.152-0.085,0.226-0.132
		c0.155-0.099,0.302-0.211,0.454-0.315c0.13-0.09,0.262-0.177,0.388-0.27c0.049-0.036,0.101-0.067,0.149-0.104
		c0.173-0.131,0.337-0.276,0.504-0.415c0.07-0.058,0.142-0.114,0.211-0.174c0.069-0.06,0.145-0.114,0.213-0.175
		c0.002-0.002,0.003-0.003,0.005-0.005c0.137-0.122,0.264-0.256,0.396-0.383c0.16-0.153,0.324-0.301,0.477-0.461
		c0.025-0.027,0.048-0.057,0.074-0.084c0.107-0.115,0.206-0.235,0.31-0.353c0.141-0.16,0.287-0.314,0.421-0.48
		c0.027-0.034,0.051-0.071,0.078-0.105c0.028-0.036,0.054-0.074,0.081-0.11c0.103-0.132,0.201-0.267,0.299-0.403
		c0.089-0.123,0.186-0.24,0.272-0.367c0.061-0.089,0.113-0.185,0.171-0.276c0.02-0.03,0.038-0.061,0.057-0.091
		c0.087-0.136,0.173-0.271,0.255-0.41c0.055-0.093,0.117-0.18,0.17-0.274c0.039-0.068,0.07-0.142,0.108-0.211
		c0.059-0.108,0.112-0.22,0.169-0.33c0.067-0.13,0.137-0.258,0.199-0.39c0.03-0.063,0.065-0.121,0.094-0.184
		c0.017-0.035,0.029-0.073,0.045-0.109c0.094-0.209,0.177-0.425,0.262-0.641c0.044-0.11,0.094-0.219,0.135-0.331
		c0.012-0.031,0.026-0.061,0.037-0.092c0.032-0.089,0.056-0.184,0.086-0.274c0.106-0.314,0.211-0.628,0.298-0.952l12.96-48.449
		c2.141-8.002-2.612-16.226-10.614-18.367c-8.002-2.139-16.226,2.612-18.367,10.614l-3.596,13.443L178.01,9.88
		c-2.68-4.641-7.631-7.5-12.991-7.5c-5.358,0-10.311,2.859-12.99,7.5l-54.197,93.872c-4.142,7.174-1.684,16.348,5.49,20.49
		c7.174,4.143,16.349,1.684,20.49-5.49l41.207-71.372l33.117,57.363l-13.486-3.602c-8.001-2.136-16.225,2.618-18.363,10.622
		c-2.138,8.004,2.618,16.225,10.622,18.363L225.334,143.059z"/>
</g>
<g>
</g>
<g>
</g>
<g>
</g>
<g>
</g>
<g>
</g>
<g>
</g>
<g>
</g>
<g>
</g>
<g>
</g>
<g>
</g>
<g>
</g>
<g>
</g>
<g>
</g>
<g>
</g>
<g>
</g>
</svg>
