<?xml version="1.0" encoding="iso-8859-1"?>
<!-- Generator: Adobe Illustrator 19.0.0, SVG Export Plug-In . SVG Version: 6.00 Build 0)  -->
<svg version="1.1" id="Layer_1" xmlns="http://www.w3.org/2000/svg" xmlns:xlink="http://www.w3.org/1999/xlink" x="0px" y="0px"
	 viewBox="0 0 309.474 309.474" style="enable-background:new 0 0 309.474 309.474;" xml:space="preserve">
<path id="XMLID_337_" d="M268.77,235.141c-0.953-1.588-23.794-38.9-63.447-38.9c-14.053,0-25.982,4.693-35.586,10.814v-29.042
	c24.173-4.719,44.387-20.61,55.039-42.064c1.044-1.51,1.79-3.158,2.216-4.87c3.796-9.18,5.903-19.229,5.903-29.764V15
	c0-8.284-6.716-15-15-15h-6.925H98.503h-6.925c-0.087,0-0.172,0.012-0.259,0.013c-0.269,0.004-0.537,0.021-0.805,0.041
	c-0.234,0.017-0.468,0.032-0.699,0.059c-0.242,0.029-0.481,0.07-0.722,0.11c-0.249,0.041-0.498,0.081-0.743,0.135
	c-0.223,0.049-0.443,0.111-0.664,0.17c-0.25,0.067-0.5,0.131-0.745,0.211c-0.222,0.072-0.44,0.159-0.66,0.242
	c-0.232,0.088-0.465,0.171-0.692,0.27c-0.229,0.1-0.453,0.215-0.679,0.327c-0.207,0.103-0.415,0.202-0.616,0.313
	c-0.228,0.127-0.448,0.268-0.67,0.408c-0.191,0.12-0.383,0.236-0.568,0.364c-0.208,0.144-0.409,0.301-0.611,0.457
	c-0.19,0.147-0.382,0.293-0.565,0.448c-0.179,0.153-0.352,0.315-0.525,0.478c-0.194,0.182-0.387,0.364-0.571,0.555
	c-0.061,0.063-0.128,0.118-0.188,0.183c-0.096,0.103-0.177,0.216-0.27,0.321c-0.178,0.202-0.352,0.406-0.519,0.617
	c-0.146,0.186-0.286,0.375-0.422,0.565c-0.146,0.205-0.288,0.412-0.425,0.623c-0.133,0.208-0.26,0.417-0.382,0.629
	c-0.121,0.209-0.235,0.421-0.346,0.636c-0.113,0.221-0.221,0.443-0.322,0.669c-0.099,0.22-0.192,0.443-0.281,0.668
	c-0.09,0.228-0.174,0.457-0.252,0.688c-0.079,0.231-0.15,0.465-0.218,0.702c-0.066,0.235-0.128,0.471-0.182,0.709
	c-0.055,0.236-0.104,0.473-0.147,0.712c-0.046,0.251-0.083,0.502-0.115,0.754c-0.029,0.23-0.056,0.46-0.075,0.694
	c-0.022,0.271-0.034,0.542-0.041,0.813c-0.004,0.139-0.021,0.274-0.021,0.415v86.316c0,37.965,27.215,69.681,63.158,76.698v29.042
	c-9.604-6.122-21.533-10.814-35.585-10.814c-39.653,0-62.495,37.311-63.447,38.899c-3.226,5.376-2.768,12.191,1.149,17.087
	c3.05,3.812,30.706,37.246,62.297,37.246c14.053,0,25.982-4.693,35.586-10.814v15.814c0,8.284,6.716,15,15,15
	c8.284,0,15-6.716,15-15v-17.614c10.233,6.938,22.573,12.614,35.585,12.614c0,0,0,0,0,0c39.653,0,62.494-37.31,63.447-38.898
	C271.619,245.825,271.619,239.891,268.77,235.141z M104.151,259.474c-9.699,0-21.979-8.809-30.969-17.451
	c6.522-7.01,17.397-15.781,30.97-15.781c14.121,0,25.315,9.487,31.731,16.614C129.456,249.996,118.266,259.474,104.151,259.474z
	 M202.895,30v68.073L129.724,30H202.895z M154.737,149.474c-26.555,0-48.158-21.604-48.158-48.158V49.443l86.725,80.683
	C184.513,141.864,170.497,149.474,154.737,149.474z M205.322,259.474c-9.699,0-21.98-8.809-30.97-17.451
	c6.523-7.01,17.398-15.781,30.971-15.781c14.122,0,25.316,9.489,31.733,16.616C230.637,249.985,219.439,259.474,205.322,259.474z"/>
<g>
</g>
<g>
</g>
<g>
</g>
<g>
</g>
<g>
</g>
<g>
</g>
<g>
</g>
<g>
</g>
<g>
</g>
<g>
</g>
<g>
</g>
<g>
</g>
<g>
</g>
<g>
</g>
<g>
</g>
</svg>
