<?xml version="1.0" encoding="iso-8859-1"?>
<!-- Generator: Adobe Illustrator 19.0.0, SVG Export Plug-In . SVG Version: 6.00 Build 0)  -->
<svg version="1.1" id="Layer_1" xmlns="http://www.w3.org/2000/svg" xmlns:xlink="http://www.w3.org/1999/xlink" x="0px" y="0px"
	 viewBox="0 0 332.018 332.018" style="enable-background:new 0 0 332.018 332.018;" xml:space="preserve">
<g id="XMLID_28_">
	<path id="XMLID_29_" d="M317.018,95.005h-110c-3.989,0-7.813,1.589-10.628,4.415l-72.405,72.7
		c-17.295,17.296-17.54,45.285-0.736,62.885H47.018c-24.813,0-45,20.187-45,45s20.187,45,45,45h130c3.417,0,6.566-1.143,9.088-3.067
		c0.533-0.406,1.041-0.849,1.52-1.328l105.605-105.604h23.787c8.284,0,15-6.716,15-15v-90.001
		C332.018,101.72,325.302,95.005,317.018,95.005z M302.018,185.006h-15c-3.978,0-7.794,1.581-10.606,4.394L170.805,295.005H47.018
		c-8.271,0-15-6.729-15-15s6.729-15,15-15h105.148c3.978,0,7.794-1.58,10.606-4.393l50-49.999v-0.001
		c5.858-5.857,5.858-15.355,0.001-21.213c-5.857-5.858-15.355-5.857-21.213,0l-25.149,25.148c-2.833,2.832-6.599,4.393-10.606,4.393
		c-4.007,0-7.773-1.561-10.606-4.394c-5.849-5.849-5.849-15.365,0.021-21.235l68.029-68.306h88.769V185.006z"/>
	<path id="XMLID_71_" d="M14.165,150.488c0.529,0.132,13.163,3.241,30.333,3.241c21.64,0,52.363-4.927,75.836-28.4
		c40.891-40.891,25.82-103.522,25.159-106.168c-1.521-6.083-6.664-10.578-12.896-11.27c-0.322-0.036-8.024-0.877-19.204-0.877
		c-26.729,0-63.169,4.579-84.983,26.392C-12.48,74.296,2.589,136.928,3.251,139.574C4.595,144.948,8.79,149.144,14.165,150.488z
		 M49.622,54.619c11.189-11.188,34.432-17.605,63.77-17.605c1.649,0,3.208,0.021,4.656,0.056
		c1.677,16.009,1.582,46.537-18.928,67.047c-16.21,16.21-38.652,19.613-54.623,19.613c-5.229,0-9.909-0.362-13.664-0.802
		C29.027,107.307,28.561,75.68,49.622,54.619z"/>
</g>
<g>
</g>
<g>
</g>
<g>
</g>
<g>
</g>
<g>
</g>
<g>
</g>
<g>
</g>
<g>
</g>
<g>
</g>
<g>
</g>
<g>
</g>
<g>
</g>
<g>
</g>
<g>
</g>
<g>
</g>
</svg>
