<?xml version="1.0" encoding="iso-8859-1"?>
<!-- Generator: Adobe Illustrator 19.0.0, SVG Export Plug-In . SVG Version: 6.00 Build 0)  -->
<svg version="1.1" id="Layer_1" xmlns="http://www.w3.org/2000/svg" xmlns:xlink="http://www.w3.org/1999/xlink" x="0px" y="0px"
	 viewBox="0 0 330 330" style="enable-background:new 0 0 330 330;" xml:space="preserve">
<path id="XMLID_221_" d="M265.972,113.986c3.947-9.812,6.003-20.346,6.003-30.981c0-45.769-37.233-83.005-83-83.005
	c-25.993,0-49.962,11.893-65.629,32.191C82.414,35.155,50,70.043,50,112.5c0,22.03,8.698,42.735,24.089,57.869
	c1.757,33.18,29.302,59.631,62.91,59.631c4.427,0,8.775-0.474,13.001-1.358V315c0,8.284,6.716,15,15,15c8.284,0,15-6.716,15-15
	V213.311c9.978,5.664,21.298,8.688,33,8.688c36.944,0,67-30.058,67-67.003C280,140.09,274.983,125.646,265.972,113.986z
	 M213,191.999c-9.439,0-18.431-3.565-25.32-10.039c-3.248-3.053-7.686-4.503-12.11-3.957c-4.424,0.546-8.376,3.032-10.784,6.783
	C158.669,194.313,148.282,200,136.999,200C118.803,200,104,185.195,104,166.997c0-0.634,0.028-1.358,0.09-2.277
	c0.323-4.844-1.718-9.544-5.478-12.615C86.784,142.443,80,128.008,80,112.5c0-27.853,21.981-50.513,49-50.513
	c0.474,0,0.944,0.021,1.414,0.038l0.317,0.011c5.346,0.201,10.416-2.496,13.257-7.046C153.758,39.342,170.575,30,188.975,30
	c29.224,0,53,23.778,53,53.005c0,9.176-2.395,18.229-6.927,26.183c-3.468,6.087-2.261,13.765,2.909,18.494
	c7.653,7,12.043,16.956,12.043,27.314C250,175.399,233.402,191.999,213,191.999z"/>
<g>
</g>
<g>
</g>
<g>
</g>
<g>
</g>
<g>
</g>
<g>
</g>
<g>
</g>
<g>
</g>
<g>
</g>
<g>
</g>
<g>
</g>
<g>
</g>
<g>
</g>
<g>
</g>
<g>
</g>
</svg>
