<?xml version="1.0" encoding="iso-8859-1"?>
<!-- Generator: Adobe Illustrator 19.0.0, SVG Export Plug-In . SVG Version: 6.00 Build 0)  -->
<svg version="1.1" id="Layer_1" xmlns="http://www.w3.org/2000/svg" xmlns:xlink="http://www.w3.org/1999/xlink" x="0px" y="0px"
	 viewBox="0 0 331.973 331.973" style="enable-background:new 0 0 331.973 331.973;" xml:space="preserve">
<path id="XMLID_239_" d="M280.019,257.641c-0.952-1.588-23.794-38.9-63.446-38.9c-14.053,0-25.982,4.693-35.586,10.814v-29.042
	c24.168-4.718,44.379-20.604,55.033-42.051c1.051-1.517,1.799-3.172,2.227-4.893c3.793-9.177,5.898-19.222,5.898-29.753V37.504
	c0-0.496-0.025-0.993-0.075-1.487c-0.021-0.213-0.061-0.419-0.091-0.629c-0.039-0.274-0.071-0.55-0.125-0.822
	c-0.049-0.246-0.116-0.483-0.177-0.725c-0.059-0.233-0.11-0.468-0.18-0.699c-0.072-0.238-0.162-0.468-0.245-0.702
	c-0.082-0.228-0.157-0.458-0.25-0.683c-0.092-0.219-0.198-0.429-0.299-0.643c-0.108-0.229-0.211-0.461-0.331-0.687
	c-0.11-0.206-0.236-0.403-0.356-0.603c-0.131-0.219-0.254-0.441-0.398-0.654c-0.15-0.226-0.318-0.438-0.48-0.654
	c-0.132-0.175-0.253-0.354-0.392-0.524c-0.629-0.766-1.33-1.467-2.096-2.095c-0.171-0.141-0.353-0.264-0.529-0.396
	c-0.214-0.161-0.424-0.327-0.648-0.476c-0.216-0.144-0.439-0.269-0.659-0.401c-0.199-0.119-0.394-0.244-0.599-0.354
	c-0.227-0.121-0.459-0.224-0.69-0.333c-0.213-0.1-0.422-0.206-0.639-0.297c-0.227-0.093-0.457-0.169-0.687-0.251
	c-0.232-0.083-0.462-0.172-0.699-0.245c-0.231-0.07-0.467-0.121-0.7-0.18c-0.24-0.06-0.479-0.128-0.723-0.176
	c-0.273-0.054-0.549-0.087-0.823-0.126c-0.21-0.03-0.415-0.07-0.628-0.091c-0.986-0.097-1.979-0.097-2.965,0
	c-0.213,0.021-0.418,0.061-0.628,0.091c-0.274,0.039-0.55,0.071-0.823,0.126c-0.244,0.049-0.482,0.116-0.723,0.176
	c-0.233,0.059-0.469,0.11-0.7,0.18c-0.237,0.072-0.467,0.161-0.699,0.245c-0.23,0.082-0.46,0.158-0.687,0.251
	c-0.217,0.09-0.426,0.197-0.639,0.297c-0.231,0.109-0.464,0.212-0.69,0.333c-0.205,0.11-0.399,0.235-0.599,0.354
	c-0.221,0.132-0.443,0.257-0.659,0.401c-0.224,0.149-0.434,0.315-0.647,0.476c-0.177,0.132-0.358,0.255-0.529,0.396
	c-0.384,0.315-0.753,0.647-1.104,0.997l-9.551,9.552L176.537,4.338c-5.844-5.784-15.258-5.784-21.102,0l-32.093,31.759l-10.298-9.58
	c-0.102-0.095-0.212-0.174-0.315-0.265c-0.205-0.18-0.411-0.357-0.626-0.526c-0.184-0.145-0.371-0.283-0.56-0.418
	c-0.206-0.148-0.414-0.291-0.628-0.428c-0.206-0.132-0.414-0.259-0.626-0.38c-0.21-0.121-0.422-0.236-0.638-0.347
	c-0.222-0.113-0.443-0.221-0.668-0.322c-0.221-0.099-0.442-0.192-0.667-0.281c-0.229-0.09-0.46-0.175-0.692-0.253
	c-0.229-0.078-0.461-0.149-0.695-0.216c-0.238-0.067-0.477-0.129-0.716-0.184c-0.233-0.054-0.469-0.103-0.707-0.146
	c-0.253-0.046-0.506-0.083-0.76-0.116c-0.229-0.029-0.457-0.055-0.688-0.074c-0.273-0.022-0.546-0.034-0.82-0.042
	c-0.137-0.003-0.271-0.021-0.41-0.021c-0.087,0-0.17,0.012-0.257,0.013c-0.271,0.005-0.541,0.022-0.812,0.041
	c-0.232,0.017-0.463,0.032-0.691,0.058c-0.244,0.029-0.486,0.071-0.729,0.111c-0.247,0.042-0.494,0.081-0.737,0.134
	c-0.224,0.049-0.444,0.112-0.666,0.171c-0.25,0.067-0.5,0.131-0.744,0.21c-0.222,0.072-0.439,0.159-0.658,0.241
	c-0.232,0.088-0.466,0.172-0.692,0.271c-0.23,0.1-0.453,0.215-0.679,0.327c-0.207,0.103-0.416,0.202-0.617,0.314
	c-0.227,0.126-0.446,0.267-0.668,0.405c-0.191,0.121-0.386,0.238-0.571,0.366c-0.207,0.143-0.407,0.3-0.608,0.455
	c-0.191,0.147-0.384,0.293-0.568,0.45c-0.179,0.152-0.351,0.314-0.523,0.475c-0.195,0.182-0.389,0.365-0.573,0.557
	c-0.062,0.063-0.128,0.118-0.188,0.183c-0.097,0.104-0.177,0.216-0.27,0.321c-0.178,0.202-0.353,0.406-0.52,0.618
	c-0.146,0.186-0.286,0.374-0.422,0.565c-0.146,0.205-0.289,0.412-0.425,0.624c-0.134,0.207-0.261,0.417-0.383,0.629
	c-0.12,0.209-0.235,0.421-0.345,0.636c-0.113,0.221-0.221,0.444-0.322,0.668c-0.1,0.221-0.193,0.443-0.282,0.669
	c-0.089,0.228-0.173,0.456-0.251,0.688c-0.078,0.231-0.15,0.465-0.218,0.702c-0.066,0.235-0.127,0.471-0.183,0.708
	c-0.055,0.236-0.104,0.474-0.146,0.714c-0.045,0.25-0.083,0.5-0.115,0.752c-0.029,0.231-0.056,0.462-0.074,0.697
	c-0.022,0.27-0.034,0.54-0.041,0.811c-0.004,0.14-0.021,0.275-0.021,0.416v86.316c0,37.965,27.215,69.681,63.158,76.698v29.042
	c-9.604-6.121-21.532-10.814-35.584-10.814c-39.654,0-62.495,37.311-63.448,38.899c-3.226,5.376-2.768,12.191,1.148,17.087
	c3.05,3.812,30.707,37.246,62.298,37.246c14.053,0,25.982-4.693,35.586-10.814v15.814c0,8.284,6.716,15,15,15
	c8.284,0,15-6.716,15-15v-17.614c10.232,6.938,22.572,12.614,35.584,12.614c39.654,0,62.495-37.309,63.448-38.898
	C282.869,268.325,282.869,262.391,280.019,257.641z M115.4,281.973c-9.699,0-21.979-8.809-30.969-17.451
	c6.522-7.01,17.397-15.781,30.971-15.781c14.122,0,25.316,9.489,31.733,16.617C140.717,272.485,129.519,281.973,115.4,281.973z
	 M214.145,73.712v46.86l-24.275-22.584L214.145,73.712z M165.986,36.103l21.784,21.557l-19.88,19.88l-22.565-20.992L165.986,36.103z
	 M117.828,123.816V71.942l39.621,36.86c0.064,0.067,0.12,0.14,0.186,0.207c0.37,0.371,0.756,0.717,1.153,1.041l45.765,42.576
	c-8.79,11.738-22.807,19.349-38.567,19.349C139.432,171.973,117.828,150.37,117.828,123.816z M216.57,281.973
	c-9.699,0-21.979-8.809-30.969-17.451c6.523-7.01,17.398-15.781,30.971-15.781c14.122,0,25.316,9.489,31.733,16.617
	C241.887,272.485,230.688,281.973,216.57,281.973z"/>
<g>
</g>
<g>
</g>
<g>
</g>
<g>
</g>
<g>
</g>
<g>
</g>
<g>
</g>
<g>
</g>
<g>
</g>
<g>
</g>
<g>
</g>
<g>
</g>
<g>
</g>
<g>
</g>
<g>
</g>
</svg>
