<?xml version="1.0" encoding="iso-8859-1"?>
<!-- Generator: Adobe Illustrator 19.0.0, SVG Export Plug-In . SVG Version: 6.00 Build 0)  -->
<svg version="1.1" id="Layer_1" xmlns="http://www.w3.org/2000/svg" xmlns:xlink="http://www.w3.org/1999/xlink" x="0px" y="0px"
	 viewBox="0 0 360 360" style="enable-background:new 0 0 360 360;" xml:space="preserve">
<g id="XMLID_13_">
	<path id="XMLID_14_" d="M102.342,246.475C99.541,242.42,94.928,240,90,240s-9.541,2.42-12.342,6.475
		c-0.32,0.463-7.925,11.497-15.633,24.785C46.765,297.566,45,308.822,45,315c0,24.813,20.187,45,45,45s45-20.187,45-45
		c0-6.178-1.765-17.434-17.025-43.74C110.267,257.972,102.662,246.938,102.342,246.475z M90,330c-8.271,0-15-6.729-15-14.982
		c0.122-4.586,6.362-17.658,15.003-32.217c8.638,14.548,14.874,27.615,14.997,32.2C105,323.271,98.271,330,90,330z"/>
	<path id="XMLID_17_" d="M300,120h-45V90h45c8.284,0,15-6.716,15-15s-6.716-15-15-15h-60h-15V30h15c8.284,0,15-6.716,15-15
		s-6.716-15-15-15h-60c-8.284,0-15,6.716-15,15s6.716,15,15,15h15v30h-15h-60c-41.355,0-75,33.645-75,75v60c0,8.284,6.716,15,15,15
		h60c8.284,0,15-6.716,15-15v-45h45h60h60c8.284,0,15-6.716,15-15S308.284,120,300,120z M105,180H75v-45c0-24.813,20.187-45,45-45
		h45v30h-45c-8.284,0-15,6.716-15,15V180z M195,120V90h30v30H195z"/>
</g>
<g>
</g>
<g>
</g>
<g>
</g>
<g>
</g>
<g>
</g>
<g>
</g>
<g>
</g>
<g>
</g>
<g>
</g>
<g>
</g>
<g>
</g>
<g>
</g>
<g>
</g>
<g>
</g>
<g>
</g>
</svg>
