<?xml version="1.0" encoding="iso-8859-1"?>
<!-- Generator: Adobe Illustrator 19.0.0, SVG Export Plug-In . SVG Version: 6.00 Build 0)  -->
<svg version="1.1" id="Layer_1" xmlns="http://www.w3.org/2000/svg" xmlns:xlink="http://www.w3.org/1999/xlink" x="0px" y="0px"
	 viewBox="0 0 330 330" style="enable-background:new 0 0 330 330;" xml:space="preserve">
<g id="XMLID_21_">
	<path id="XMLID_22_" d="M315,100H205c-3.988,0-7.814,1.589-10.628,4.415l-72.405,72.699c-8.499,8.499-13.181,19.8-13.181,31.82
		c0,11.668,4.411,22.658,12.443,31.066H45c-24.813,0-45,20.187-45,45s20.187,45,45,45h130c3.417,0,6.566-1.143,9.089-3.067
		c0.532-0.406,1.04-0.849,1.52-1.328l105.604-105.603H315c8.284,0,15-6.716,15-15V115C330,106.716,323.284,100,315,100z
		 M300,190.001h-15c-3.979,0-7.794,1.58-10.606,4.393L168.787,300H45c-8.271,0-15-6.729-15-15s6.729-15,15-15h105.148
		c3.979,0,7.794-1.581,10.607-4.394l49.997-50c5.858-5.858,5.858-15.355,0-21.213c-5.857-5.857-15.355-5.858-21.213,0
		l-25.147,25.147c-2.833,2.833-6.6,4.394-10.606,4.394c-4.007,0-7.773-1.561-10.607-4.394c-2.833-2.833-4.394-6.6-4.394-10.606
		c0-4.006,1.561-7.773,4.415-10.628L211.231,130H300V190.001z"/>
	<path id="XMLID_25_" d="M60,170c33.084,0,60-26.916,60-60c0-8.309-2.522-23.983-24.329-63.998
		C84.296,25.128,73.097,7.635,72.626,6.901C69.867,2.601,65.109,0,60,0s-9.867,2.601-12.626,6.901
		c-0.471,0.734-11.67,18.228-23.045,39.102C2.522,86.017,0,101.691,0,110C0,143.084,26.916,170,60,170z M60.002,43.747
		C76.028,71.179,90,99.96,90,110c0,16.542-13.458,30-30,30s-30-13.458-30-30C30,99.973,43.975,71.188,60.002,43.747z"/>
</g>
<g>
</g>
<g>
</g>
<g>
</g>
<g>
</g>
<g>
</g>
<g>
</g>
<g>
</g>
<g>
</g>
<g>
</g>
<g>
</g>
<g>
</g>
<g>
</g>
<g>
</g>
<g>
</g>
<g>
</g>
</svg>
