<?xml version="1.0" encoding="iso-8859-1"?>
<!-- Generator: Adobe Illustrator 19.0.0, SVG Export Plug-In . SVG Version: 6.00 Build 0)  -->
<svg version="1.1" id="Layer_1" xmlns="http://www.w3.org/2000/svg" xmlns:xlink="http://www.w3.org/1999/xlink" x="0px" y="0px"
	 viewBox="0 0 330.188 330.188" style="enable-background:new 0 0 330.188 330.188;" xml:space="preserve">
<g id="XMLID_449_">
	<path id="XMLID_450_" d="M135,0.094c-8.284,0-15,6.716-15,15v50.729l-30,15V15.094c0-8.284-6.716-15-15-15c-8.284,0-15,6.716-15,15
		v65.729l-30-15V15.094c0-8.284-6.716-15-15-15c-8.284,0-15,6.716-15,15v60v60v60c0,5.682,3.21,10.876,8.292,13.417L60,234.364
		v80.73c0,8.284,6.716,15,15,15c8.284,0,15-6.716,15-15v-80.73l51.708-25.854c5.082-2.541,8.292-7.735,8.292-13.417v-60v-60v-60
		C150,6.81,143.284,0.094,135,0.094z M120,99.364v26.459l-30,15v-26.459L120,99.364z M60,114.364v26.459l-30-15V99.364L60,114.364z
		 M30,159.364l30,15v26.459l-30-15V159.364z M120,185.823l-30,15v-26.459l30-15V185.823z"/>
	<path id="XMLID_458_" d="M315.188,0.094c-8.284,0-15,6.716-15,15v50.729l-30,15V15.094c0-8.284-6.716-15-15-15
		c-8.284,0-15,6.716-15,15v65.729l-30-15V15.094c0-8.284-6.716-15-15-15c-8.284,0-15,6.716-15,15v60v60v60
		c0,5.682,3.21,10.876,8.292,13.417l51.708,25.854v80.73c0,8.284,6.716,15,15,15c8.284,0,15-6.716,15-15v-80.73l51.708-25.854
		c5.082-2.541,8.292-7.735,8.292-13.417v-60v-60v-60C330.188,6.81,323.472,0.094,315.188,0.094z M300.188,99.364v26.459l-30,15
		v-26.459L300.188,99.364z M240.188,114.364v26.459l-30-15V99.364L240.188,114.364z M210.188,159.364l30,15v26.459l-30-15V159.364z
		 M300.188,185.823l-30,15v-26.459l30-15V185.823z"/>
</g>
<g>
</g>
<g>
</g>
<g>
</g>
<g>
</g>
<g>
</g>
<g>
</g>
<g>
</g>
<g>
</g>
<g>
</g>
<g>
</g>
<g>
</g>
<g>
</g>
<g>
</g>
<g>
</g>
<g>
</g>
</svg>
