<?xml version="1.0" encoding="iso-8859-1"?>
<!-- Generator: Adobe Illustrator 19.0.0, SVG Export Plug-In . SVG Version: 6.00 Build 0)  -->
<svg version="1.1" id="Layer_1" xmlns="http://www.w3.org/2000/svg" xmlns:xlink="http://www.w3.org/1999/xlink" x="0px" y="0px"
	 viewBox="0 0 363.428 363.428" style="enable-background:new 0 0 363.428 363.428;" xml:space="preserve">
<g id="XMLID_2_">
	<path id="XMLID_4_" d="M203.177,125.461c0,0,0.003,0,0.005,0c25.746,0,47.549-8.194,63.051-23.696
		c27.058-27.059,22.021-80.204,21.358-86.176c-0.692-6.231-5.188-11.375-11.272-12.896C275.217,2.418,265.142,0,251.221,0
		c-25.75,0-47.555,8.193-63.058,23.696c-2.314,2.316-4.465,4.765-6.449,7.346c-1.984-2.581-4.136-5.031-6.45-7.347
		C155.679,4.111,130.163,0,112.207,0C98.283,0,88.21,2.418,87.106,2.693c-6.082,1.522-10.577,6.664-11.27,12.896
		c-0.663,5.972-5.7,59.117,21.358,86.176c19.585,19.585,45.1,23.696,63.056,23.696c2.265,0,4.424-0.065,6.463-0.174v29.218
		c-50.816,7.301-90,51.119-90,103.923c0,57.897,47.103,105,105,105s105-47.103,105-105c0-52.804-39.184-96.622-90-103.923v-29.218
		C198.753,125.396,200.912,125.461,203.177,125.461z M108.224,273.428h28.878c0.946,18.186,3.644,35.798,8.228,50.552
		C126.517,313.496,112.652,295.161,108.224,273.428z M137.102,243.428h-28.878c4.429-21.733,18.293-40.067,37.105-50.552
		C140.745,207.63,138.048,225.242,137.102,243.428z M255.204,243.428h-28.878c-0.946-18.186-3.644-35.798-8.228-50.552
		C236.911,203.36,250.775,221.694,255.204,243.428z M226.326,273.428h28.878c-4.429,21.733-18.293,40.068-37.105,50.552
		C222.683,309.226,225.38,291.613,226.326,273.428z M181.714,332.066c-4.841-6.149-12.66-26.09-14.568-58.639h29.137
		C194.374,305.977,186.555,325.917,181.714,332.066z M167.145,243.428c1.908-32.549,9.728-52.489,14.568-58.638
		c4.841,6.148,12.66,26.089,14.568,58.638H167.145z"/>
</g>
<g>
</g>
<g>
</g>
<g>
</g>
<g>
</g>
<g>
</g>
<g>
</g>
<g>
</g>
<g>
</g>
<g>
</g>
<g>
</g>
<g>
</g>
<g>
</g>
<g>
</g>
<g>
</g>
<g>
</g>
</svg>
