<?xml version="1.0" encoding="iso-8859-1"?>
<!-- Generator: Adobe Illustrator 19.0.0, SVG Export Plug-In . SVG Version: 6.00 Build 0)  -->
<svg version="1.1" id="Layer_1" xmlns="http://www.w3.org/2000/svg" xmlns:xlink="http://www.w3.org/1999/xlink" x="0px" y="0px"
	 viewBox="0 0 330 330" style="enable-background:new 0 0 330 330;" xml:space="preserve">
<g id="XMLID_239_">
	<path id="XMLID_240_" d="M35,210H15c-8.285,0-15,6.716-15,15s6.715,15,15,15h5.998l5.238,76.031
		C26.778,323.897,33.316,330,41.201,330H283.1c7.525,0,13.885-5.575,14.871-13.034L308.146,240H315c8.283,0,15-6.716,15-15
		s-6.717-15-15-15h-20h-40v-35.352c3.536,0.819,7.192,1.248,10.916,1.248c26.504,0,48.068-21.563,48.068-48.068
		c0-4.14-0.527-8.223-1.558-12.166C323.31,106.678,330,93.104,330,78.534c0-25.544-20.027-46.498-45.205-47.983
		C277.81,12.574,260.387,0,240,0c-20.387,0-37.81,12.574-44.795,30.551c-11.67,0.688-22.229,5.565-30.205,13.138
		c-7.977-7.573-18.535-12.449-30.205-13.138C127.81,12.574,110.387,0,90,0C69.613,0,52.19,12.574,45.205,30.551
		C20.027,32.036,0,52.99,0,78.534c0,14.571,6.689,28.144,17.574,37.129c-1.029,3.942-1.557,8.024-1.557,12.165
		c0,26.505,21.563,48.068,48.066,48.068c3.724,0,7.379-0.43,10.916-1.248V210H35z M240,76.948c8.285,0,15,6.716,15,15
		c0,8.284-6.715,15-15,15c-8.283,0-15-6.716-15-15C225,83.664,231.717,76.948,240,76.948z M163.984,127.828
		c0-4.14-0.527-8.223-1.558-12.166c0.89-0.735,1.741-1.511,2.573-2.305c0.832,0.794,1.684,1.57,2.574,2.305
		c-1.029,3.942-1.557,8.024-1.557,12.165c0,26.505,21.563,48.068,48.066,48.068c3.724,0,7.379-0.43,10.916-1.248V210H105v-35.352
		c3.536,0.819,7.192,1.248,10.916,1.248C142.42,175.896,163.984,154.333,163.984,127.828z M90,76.948c8.285,0,15,6.716,15,15
		c0,8.284-6.715,15-15,15c-8.283,0-15-6.716-15-15C75,83.664,81.717,76.948,90,76.948z"/>
</g>
<g>
</g>
<g>
</g>
<g>
</g>
<g>
</g>
<g>
</g>
<g>
</g>
<g>
</g>
<g>
</g>
<g>
</g>
<g>
</g>
<g>
</g>
<g>
</g>
<g>
</g>
<g>
</g>
<g>
</g>
</svg>
