<?xml version="1.0" encoding="iso-8859-1"?>
<!-- Generator: Adobe Illustrator 19.0.0, SVG Export Plug-In . SVG Version: 6.00 Build 0)  -->
<svg version="1.1" id="Layer_1" xmlns="http://www.w3.org/2000/svg" xmlns:xlink="http://www.w3.org/1999/xlink" x="0px" y="0px"
	 viewBox="0 0 330 330" style="enable-background:new 0 0 330 330;" xml:space="preserve">
<g id="XMLID_86_">
	<path id="XMLID_87_" d="M165,330c8.284,0,15-6.716,15-15V213.311c9.979,5.664,21.298,8.688,33,8.688c36.943,0,67-30.058,67-67.003
		c0-14.906-5.018-29.349-14.028-41.01c3.946-9.812,6.003-20.346,6.003-30.981c0-45.769-37.233-83.005-83-83.005
		c-25.992,0-49.963,11.893-65.629,32.191C82.414,35.155,50,70.043,50,112.5c0,22.03,8.697,42.735,24.089,57.869
		c1.757,33.18,29.302,59.631,62.91,59.631c4.427,0,8.775-0.474,13.001-1.358V315C150,323.284,156.716,330,165,330z M205,120
		c3.949,0,7.81,1.6,10.609,4.39C218.4,127.19,220,131.05,220,135c0,3.95-1.6,7.81-4.391,10.61C212.81,148.4,208.949,150,205,150
		c-3.95,0-7.811-1.6-10.61-4.39c-2.79-2.79-4.39-6.66-4.39-10.61c0-3.95,1.6-7.82,4.39-10.61C197.18,121.6,201.05,120,205,120z
		 M164.39,74.39c2.8-2.79,6.66-4.39,10.61-4.39c3.949,0,7.82,1.6,10.609,4.39C188.4,77.19,190,81.05,190,85
		c0,3.95-1.6,7.81-4.391,10.61C182.82,98.4,178.949,100,175,100c-3.95,0-7.811-1.6-10.61-4.39C161.6,92.82,160,88.95,160,85
		C160,81.05,161.6,77.19,164.39,74.39z M145,150c-3.95,0-7.82-1.6-10.61-4.39c-2.79-2.8-4.39-6.66-4.39-10.61
		c0-3.95,1.6-7.82,4.39-10.61c2.79-2.79,6.66-4.39,10.61-4.39c3.949,0,7.811,1.6,10.609,4.39C158.4,127.18,160,131.05,160,135
		c0,3.95-1.6,7.81-4.391,10.61C152.811,148.4,148.949,150,145,150z"/>
</g>
<g>
</g>
<g>
</g>
<g>
</g>
<g>
</g>
<g>
</g>
<g>
</g>
<g>
</g>
<g>
</g>
<g>
</g>
<g>
</g>
<g>
</g>
<g>
</g>
<g>
</g>
<g>
</g>
<g>
</g>
</svg>
