<?xml version="1.0" encoding="iso-8859-1"?>
<!-- Generator: Adobe Illustrator 19.0.0, SVG Export Plug-In . SVG Version: 6.00 Build 0)  -->
<svg version="1.1" id="Layer_1" xmlns="http://www.w3.org/2000/svg" xmlns:xlink="http://www.w3.org/1999/xlink" x="0px" y="0px"
	 viewBox="0 0 330 330" style="enable-background:new 0 0 330 330;" xml:space="preserve">
<g id="XMLID_237_">
	<path id="XMLID_238_" d="M242.986,222.549C229.544,199.218,206.388,183.2,180,178.753v-43.66
		c2.396-11.307,11.763-66.823-25.606-104.192C130.921,7.428,100.197,2.5,78.557,2.5c-17.166,0-29.801,3.109-30.33,3.241
		c-6.084,1.521-10.579,6.664-11.271,12.896c-0.079,0.711-1.914,17.653-0.03,38.369c2.673,29.395,11.267,51.539,25.545,65.817
		c23.474,23.473,54.196,28.4,75.837,28.4c4.209,0,8.142-0.188,11.693-0.472v28c-26.388,4.447-49.544,20.465-62.986,43.796
		C38.765,224.13,0,263.873,0,312.5c0,8.284,6.716,15,15,15h300c8.284,0,15-6.716,15-15C330,263.873,291.235,224.13,242.986,222.549z
		"/>
</g>
<g>
</g>
<g>
</g>
<g>
</g>
<g>
</g>
<g>
</g>
<g>
</g>
<g>
</g>
<g>
</g>
<g>
</g>
<g>
</g>
<g>
</g>
<g>
</g>
<g>
</g>
<g>
</g>
<g>
</g>
</svg>
