<?xml version="1.0" encoding="iso-8859-1"?>
<!-- Generator: Adobe Illustrator 19.0.0, SVG Export Plug-In . SVG Version: 6.00 Build 0)  -->
<svg version="1.1" id="Layer_1" xmlns="http://www.w3.org/2000/svg" xmlns:xlink="http://www.w3.org/1999/xlink" x="0px" y="0px"
	 viewBox="0 0 330 330" style="enable-background:new 0 0 330 330;" xml:space="preserve">
<path id="XMLID_25_" d="M276.622,75.822c-23.396-23.398-56.978-30.532-86.604-21.44C200.213,39.665,217.209,30,236.429,30
	c8.284,0,15-6.716,15-15s-6.716-15-15-15C206.781,0,180.574,15.008,165,37.823C149.426,15.008,123.219,0,93.571,0
	c-8.284,0-15,6.716-15,15s6.716,15,15,15c19.22,0,36.216,9.665,46.409,24.383c-29.625-9.093-63.206-1.958-86.603,21.44
	c-5.858,5.858-5.858,15.355,0,21.213c2.929,2.929,6.768,4.394,10.607,4.394c3.839,0,7.678-1.464,10.606-4.394
	c13.585-13.585,32.429-18.77,50.038-15.578c-27.37,14.521-46.058,43.317-46.058,76.4c0,8.284,6.716,15,15,15s15-6.716,15-15
	c0-25.921,17.574-47.801,41.429-54.388V315c0,8.284,6.716,15,15,15s15-6.716,15-15V103.469
	c23.855,6.587,41.429,28.467,41.429,54.388c0,8.284,6.716,15,15,15c8.284,0,15-6.716,15-15c0-33.083-18.686-61.878-46.058-76.4
	c17.609-3.191,36.453,1.994,50.038,15.578c2.929,2.929,6.768,4.394,10.606,4.394c3.839,0,7.678-1.464,10.607-4.394
	C282.48,91.177,282.48,81.68,276.622,75.822z"/>
<g>
</g>
<g>
</g>
<g>
</g>
<g>
</g>
<g>
</g>
<g>
</g>
<g>
</g>
<g>
</g>
<g>
</g>
<g>
</g>
<g>
</g>
<g>
</g>
<g>
</g>
<g>
</g>
<g>
</g>
</svg>
