<?xml version="1.0" encoding="iso-8859-1"?>
<!-- Generator: Adobe Illustrator 19.0.0, SVG Export Plug-In . SVG Version: 6.00 Build 0)  -->
<svg version="1.1" id="Layer_1" xmlns="http://www.w3.org/2000/svg" xmlns:xlink="http://www.w3.org/1999/xlink" x="0px" y="0px"
	 viewBox="0 0 329.999 329.999" style="enable-background:new 0 0 329.999 329.999;" xml:space="preserve">
<g id="XMLID_30_">
	<path id="XMLID_31_" d="M2.145,241.273c2.713,4.511,7.591,7.27,12.854,7.27h65v45c0,8.284,6.717,15,15,15c8.285,0,15-6.716,15-15
		v-45h65c0.006,0,0.015,0,0.02,0h19.98v45c0,8.284,6.716,15,15,15c8.284,0,15-6.716,15-15v-45h90c5.268,0,10.149-2.763,12.86-7.28
		c2.712-4.517,2.854-10.124,0.378-14.773l-105-197.087c-2.605-4.892-7.696-7.947-13.238-7.947c-5.542,0-10.633,3.056-13.238,7.947
		l-56.673,106.378l-31.839-59.983c-2.603-4.902-7.699-7.967-13.25-7.967c-5.55,0-10.646,3.065-13.248,7.967l-80,150.713
		C-0.717,231.16-0.567,236.762,2.145,241.273z"/>
</g>
<g>
</g>
<g>
</g>
<g>
</g>
<g>
</g>
<g>
</g>
<g>
</g>
<g>
</g>
<g>
</g>
<g>
</g>
<g>
</g>
<g>
</g>
<g>
</g>
<g>
</g>
<g>
</g>
<g>
</g>
</svg>
