<?xml version="1.0" encoding="iso-8859-1"?>
<!-- Generator: Adobe Illustrator 19.0.0, SVG Export Plug-In . SVG Version: 6.00 Build 0)  -->
<svg version="1.1" id="Layer_1" xmlns="http://www.w3.org/2000/svg" xmlns:xlink="http://www.w3.org/1999/xlink" x="0px" y="0px"
	 viewBox="0 0 330 330" style="enable-background:new 0 0 330 330;" xml:space="preserve">
<g id="XMLID_92_">
	<path id="XMLID_93_" d="M280.74,1.142c-5.605-2.32-12.057-1.039-16.347,3.252L220,48.788L175.606,4.395
		c-2.813-2.813-6.628-4.393-10.606-4.393L55,0.002c-6.067,0-11.536,3.655-13.858,9.26c-2.321,5.605-1.038,12.057,3.252,16.347
		l44.394,44.393l-44.394,44.392C41.58,117.206,40,121.022,40,125v110.001c0,6.067,3.654,11.537,9.26,13.858
		c1.856,0.768,3.805,1.142,5.737,1.142c3.903,0,7.74-1.524,10.609-4.394L110,201.213l40,39.999V315c0,8.284,6.716,15,15,15
		c8.284,0,15-6.716,15-15v-65.001h95c6.067,0,11.536-3.655,13.858-9.26c2.321-5.605,1.038-12.057-3.252-16.347L241.213,180
		l44.393-44.393C288.42,132.794,290,128.979,290,125V15C290,8.933,286.346,3.463,280.74,1.142z M175.607,135.606L175.607,135.606
		c-0.001,0.001-0.001,0.001-0.001,0.001C172.774,138.44,169.008,140,165,140c-4.007,0-7.773-1.56-10.606-4.393
		C151.561,132.774,150,129.007,150,125c0-4.006,1.561-7.773,4.393-10.605c0.002-0.001,0.003-0.003,0.004-0.005
		c2.835-2.83,6.6-4.39,10.604-4.39c4.002,0,7.766,1.558,10.6,4.387c0.003,0.002,0.005,0.004,0.007,0.007
		c0.001,0.001,0.002,0.002,0.003,0.003C178.44,117.229,180,120.994,180,125C180,129.007,178.44,132.773,175.607,135.606z"/>
</g>
<g>
</g>
<g>
</g>
<g>
</g>
<g>
</g>
<g>
</g>
<g>
</g>
<g>
</g>
<g>
</g>
<g>
</g>
<g>
</g>
<g>
</g>
<g>
</g>
<g>
</g>
<g>
</g>
<g>
</g>
</svg>
