<?xml version="1.0" encoding="iso-8859-1"?>
<!-- Generator: Adobe Illustrator 19.0.0, SVG Export Plug-In . SVG Version: 6.00 Build 0)  -->
<svg version="1.1" id="Layer_1" xmlns="http://www.w3.org/2000/svg" xmlns:xlink="http://www.w3.org/1999/xlink" x="0px" y="0px"
	 viewBox="0 0 330.009 330.009" style="enable-background:new 0 0 330.009 330.009;" xml:space="preserve">
<g id="XMLID_245_">
	<path id="XMLID_307_" d="M62.474,120.333c23.474,23.473,54.196,28.4,75.837,28.4c4.209,0,8.142-0.188,11.693-0.472v26.747h-47.5
		h-22.5c-8.284,0-15,6.716-15,15c0,8.284,6.716,15,15,15h9.074l12.406,111.656c0.844,7.597,7.266,13.344,14.908,13.344h97.223
		c7.643,0,14.064-5.747,14.908-13.344l12.406-111.656h9.074c8.284,0,15-6.716,15-15c0-8.284-6.716-15-15-15h-22.5h-47.5v-26.733
		c3.546,0.282,7.482,0.468,11.705,0.468c22.285,0,52.572-5.157,75.825-28.41c14.278-14.278,22.873-36.422,25.545-65.817
		c1.884-20.716,0.049-37.658-0.03-38.37c-0.692-6.231-5.188-11.374-11.27-12.896c-2.647-0.66-65.278-15.731-106.169,25.159
		c-3.934,3.934-7.47,8.199-10.605,12.777c-3.03-4.42-6.538-8.708-10.607-12.777c-23.473-23.473-54.196-28.4-75.837-28.4
		c-17.166,0-29.801,3.109-30.33,3.241C42.147,4.771,37.652,9.915,36.96,16.147c-0.079,0.711-1.914,17.653-0.03,38.369
		C39.602,83.912,48.196,106.055,62.474,120.333z"/>
</g>
<g>
</g>
<g>
</g>
<g>
</g>
<g>
</g>
<g>
</g>
<g>
</g>
<g>
</g>
<g>
</g>
<g>
</g>
<g>
</g>
<g>
</g>
<g>
</g>
<g>
</g>
<g>
</g>
<g>
</g>
</svg>
