<?xml version="1.0" encoding="iso-8859-1"?>
<!-- Generator: Adobe Illustrator 19.0.0, SVG Export Plug-In . SVG Version: 6.00 Build 0)  -->
<svg version="1.1" id="Layer_1" xmlns="http://www.w3.org/2000/svg" xmlns:xlink="http://www.w3.org/1999/xlink" x="0px" y="0px"
	 viewBox="0 0 330 330" style="enable-background:new 0 0 330 330;" xml:space="preserve">
<g id="XMLID_235_">
	<path id="XMLID_236_" d="M242.986,222.553c-13.442-23.331-36.599-39.349-62.986-43.795v-27.986
		c3.546,0.282,7.481,0.467,11.705,0.467c22.285,0,52.572-5.157,75.825-28.41c14.278-14.278,22.873-36.422,25.545-65.817
		c1.884-20.716,0.049-37.659-0.03-38.37c-0.692-6.231-5.188-11.374-11.27-12.895c-2.644-0.661-65.278-15.731-106.168,25.159
		c-3.934,3.934-7.47,8.199-10.605,12.777c-3.03-4.42-6.538-8.708-10.607-12.777c-23.473-23.473-54.196-28.4-75.837-28.4
		c-17.165,0-29.801,3.109-30.331,3.241c-6.083,1.52-10.578,6.664-11.271,12.896c-0.079,0.711-1.913,17.654-0.03,38.37
		c2.673,29.395,11.267,51.539,25.545,65.817c23.474,23.473,54.197,28.4,75.838,28.4c4.208,0,8.141-0.188,11.692-0.472v28
		c-26.388,4.447-49.544,20.465-62.986,43.795C38.765,224.134,0,263.878,0,312.505c0,8.284,6.716,15,15,15h300
		c8.284,0,15-6.716,15-15C330,263.878,291.235,224.134,242.986,222.553z"/>
</g>
<g>
</g>
<g>
</g>
<g>
</g>
<g>
</g>
<g>
</g>
<g>
</g>
<g>
</g>
<g>
</g>
<g>
</g>
<g>
</g>
<g>
</g>
<g>
</g>
<g>
</g>
<g>
</g>
<g>
</g>
</svg>
