<?xml version="1.0" encoding="iso-8859-1"?>
<!-- Generator: Adobe Illustrator 19.0.0, SVG Export Plug-In . SVG Version: 6.00 Build 0)  -->
<svg version="1.1" id="Layer_1" xmlns="http://www.w3.org/2000/svg" xmlns:xlink="http://www.w3.org/1999/xlink" x="0px" y="0px"
	 viewBox="0 0 319.474 319.474" style="enable-background:new 0 0 319.474 319.474;" xml:space="preserve">
<g id="XMLID_108_">
	<path id="XMLID_109_" d="M109.151,206.241c-39.652,0-62.494,37.311-63.447,38.899c-3.226,5.376-2.768,12.191,1.149,17.087
		c3.05,3.813,30.708,37.246,62.298,37.246c14.053,0,25.982-4.693,35.586-10.814v15.814c0,8.284,6.717,15,15,15
		c8.285,0,14.999-6.716,14.999-15V286.86c10.232,6.939,22.572,12.614,35.584,12.614c39.654,0,62.496-37.31,63.449-38.898
		c2.85-4.75,2.85-10.684,0-15.434c-0.953-1.588-23.795-38.9-63.447-38.9c-14.053,0-25.982,4.693-35.586,10.814v-42.408
		c3.537,0.818,7.193,1.248,10.916,1.248c26.504,0,48.066-21.563,48.066-48.068c0-4.141-0.527-8.223-1.557-12.165
		c10.885-8.985,17.574-22.558,17.574-37.129c0-25.544-20.027-46.498-45.203-47.983C197.547,12.574,180.125,0,159.737,0
		c-20.387,0-37.81,12.574-44.795,30.55C89.765,32.036,69.737,52.99,69.737,78.534c0,14.57,6.69,28.144,17.573,37.128
		c-1.03,3.942-1.558,8.025-1.558,12.165c0,26.505,21.564,48.068,48.068,48.068c3.724,0,7.38-0.43,10.916-1.248v42.409
		C135.134,210.935,123.204,206.241,109.151,206.241z M159.737,76.948c8.283,0,14.999,6.716,14.999,15c0,8.284-6.717,15-14.999,15
		c-8.285,0-15-6.716-15-15C144.737,83.664,151.452,76.948,159.737,76.948z"/>
</g>
<g>
</g>
<g>
</g>
<g>
</g>
<g>
</g>
<g>
</g>
<g>
</g>
<g>
</g>
<g>
</g>
<g>
</g>
<g>
</g>
<g>
</g>
<g>
</g>
<g>
</g>
<g>
</g>
<g>
</g>
</svg>
