<?xml version="1.0" encoding="iso-8859-1"?>
<!-- Generator: Adobe Illustrator 19.0.0, SVG Export Plug-In . SVG Version: 6.00 Build 0)  -->
<svg version="1.1" id="Layer_1" xmlns="http://www.w3.org/2000/svg" xmlns:xlink="http://www.w3.org/1999/xlink" x="0px" y="0px"
	 viewBox="0 0 309.474 309.474" style="enable-background:new 0 0 309.474 309.474;" xml:space="preserve">
<g id="XMLID_169_">
	<path id="XMLID_197_" d="M232.895,101.316V15c0-8.284-6.716-15-15-15h-6.925H98.503h-1.025L229.78,123.085
		C231.794,116.171,232.895,108.872,232.895,101.316z"/>
	<path id="XMLID_221_" d="M268.77,235.141c-0.953-1.588-23.795-38.9-63.447-38.9c-14.053,0-25.982,4.693-35.586,10.814v-29.042
		c18.26-3.565,34.257-13.507,45.584-27.403L76.578,21.534v79.782c0,37.965,27.215,69.681,63.158,76.698v29.042
		c-9.604-6.122-21.533-10.814-35.585-10.814c-39.653,0-62.495,37.311-63.447,38.899c-3.226,5.376-2.768,12.191,1.149,17.087
		c3.049,3.812,30.706,37.246,62.297,37.246c14.053,0,25.982-4.693,35.586-10.814v15.814c0,8.284,6.716,15,15,15
		c8.284,0,15-6.716,15-15v-17.614c10.232,6.938,22.572,12.614,35.585,12.614c0,0,0,0,0.001,0c39.652,0,62.494-37.31,63.446-38.898
		C271.619,245.825,271.619,239.891,268.77,235.141z"/>
</g>
<g>
</g>
<g>
</g>
<g>
</g>
<g>
</g>
<g>
</g>
<g>
</g>
<g>
</g>
<g>
</g>
<g>
</g>
<g>
</g>
<g>
</g>
<g>
</g>
<g>
</g>
<g>
</g>
<g>
</g>
</svg>
