<?xml version="1.0" encoding="iso-8859-1"?>
<!-- Generator: Adobe Illustrator 19.0.0, SVG Export Plug-In . SVG Version: 6.00 Build 0)  -->
<svg version="1.1" id="Layer_1" xmlns="http://www.w3.org/2000/svg" xmlns:xlink="http://www.w3.org/1999/xlink" x="0px" y="0px"
	 viewBox="0 0 332.019 332.019" style="enable-background:new 0 0 332.019 332.019;" xml:space="preserve">
<g id="XMLID_18_">
	<path id="XMLID_19_" d="M317.018,95.006l-110-0.001c-3.987,0.001-7.814,1.59-10.628,4.415l-54.188,54.408l-28.854,28.854
		l0.019,0.019c-11.715,11.715-11.715,30.709,0.001,42.425c1.636,1.636,3.417,3.035,5.297,4.213
		c11.584,7.265,27.048,5.866,37.126-4.213l0.02,0.019l10.48-10.481l18.373-18.372l6.892-6.892
		c5.856-5.856,15.354-5.857,21.212,0.001c5.858,5.858,5.859,15.356,0,21.213l-50,49.999c-2.811,2.814-6.628,4.395-10.605,4.393
		L4.598,265.006c-1.665,4.694-2.58,9.741-2.58,15c0,24.813,20.188,44.999,45,45h130c3.417-0.001,6.566-1.143,9.088-3.067
		c0.533-0.406,1.041-0.85,1.52-1.329l105.604-105.603l23.787,0c8.284,0,15.001-6.717,15-15l0.001-90.002
		C332.018,101.721,325.302,95.006,317.018,95.006z"/>
	<path id="XMLID_20_" d="M14.165,150.489c0.53,0.132,13.164,3.241,30.333,3.242c21.64,0,52.364-4.927,75.836-28.4
		c40.891-40.891,25.82-103.522,25.159-106.169c-1.52-6.082-6.664-10.577-12.896-11.27c-0.322-0.036-8.023-0.877-19.203-0.877
		c-26.729,0-63.17,4.578-84.984,26.393C-12.48,74.297,2.589,136.928,3.251,139.574C4.594,144.949,8.791,149.144,14.165,150.489z"/>
</g>
<g>
</g>
<g>
</g>
<g>
</g>
<g>
</g>
<g>
</g>
<g>
</g>
<g>
</g>
<g>
</g>
<g>
</g>
<g>
</g>
<g>
</g>
<g>
</g>
<g>
</g>
<g>
</g>
<g>
</g>
</svg>
