<?xml version="1.0" encoding="iso-8859-1"?>
<!-- Generator: Adobe Illustrator 19.0.0, SVG Export Plug-In . SVG Version: 6.00 Build 0)  -->
<svg version="1.1" id="Layer_1" xmlns="http://www.w3.org/2000/svg" xmlns:xlink="http://www.w3.org/1999/xlink" x="0px" y="0px"
	 viewBox="0 0 330 330" style="enable-background:new 0 0 330 330;" xml:space="preserve">
<g id="XMLID_26_">
	<path id="XMLID_27_" d="M30,315c0,8.284,6.716,15,15,15s15-6.716,15-15v-47.58c17.459-6.192,30-22.865,30-42.42v-20
		c0-24.813-20.187-45-45-45S0,180.187,0,205v20c0,19.555,12.541,36.228,30,42.42V315z"/>
	<path id="XMLID_28_" d="M165,330c8.284,0,15-6.716,15-15V188.491c34.192-6.968,60-37.272,60-73.491V75c0-41.355-33.645-75-75-75
		S90,33.645,90,75v40c0,36.219,25.808,66.523,60,73.491V315C150,323.284,156.716,330,165,330z"/>
	<path id="XMLID_29_" d="M285,160c-24.814,0-45,20.187-45,45v20c0,19.555,12.541,36.228,30,42.42V315c0,8.284,6.716,15,15,15
		s15-6.716,15-15v-47.58c17.459-6.192,30-22.865,30-42.42v-20C330,180.187,309.814,160,285,160z"/>
</g>
<g>
</g>
<g>
</g>
<g>
</g>
<g>
</g>
<g>
</g>
<g>
</g>
<g>
</g>
<g>
</g>
<g>
</g>
<g>
</g>
<g>
</g>
<g>
</g>
<g>
</g>
<g>
</g>
<g>
</g>
</svg>
