<?xml version="1.0" encoding="iso-8859-1"?>
<!-- Generator: Adobe Illustrator 19.0.0, SVG Export Plug-In . SVG Version: 6.00 Build 0)  -->
<svg version="1.1" id="Layer_1" xmlns="http://www.w3.org/2000/svg" xmlns:xlink="http://www.w3.org/1999/xlink" x="0px" y="0px"
	 viewBox="0 0 331.973 331.973" style="enable-background:new 0 0 331.973 331.973;" xml:space="preserve">
<g id="XMLID_104_">
	<path id="XMLID_105_" d="M244.145,123.816V43.704l-54.279,54.279l51.166,47.601C243.045,138.67,244.145,131.371,244.145,123.816z"
		/>
	<path id="XMLID_106_" d="M155.436,4.338l-32.092,31.758l44.547,41.444l41.093-41.094L176.537,4.338
		C170.693-1.446,161.279-1.446,155.436,4.338z"/>
	<path id="XMLID_107_" d="M115.402,218.74c-39.654,0-62.495,37.311-63.448,38.899c-3.226,5.376-2.768,12.191,1.148,17.087
		c3.05,3.812,30.707,37.246,62.298,37.246c14.053,0,25.982-4.693,35.586-10.814v15.814c0,8.284,6.716,15,15,15
		c8.284,0,15-6.716,15-15v-17.614c10.232,6.938,22.572,12.614,35.584,12.614c39.654,0,62.495-37.309,63.448-38.898
		c2.851-4.75,2.851-10.684,0-15.434c-0.952-1.588-23.794-38.9-63.446-38.9c-14.053,0-25.982,4.693-35.586,10.814v-29.042
		c18.26-3.565,34.258-13.508,45.585-27.405l-57.935-53.897l-21.974-20.443L87.828,44.033v79.782c0,10.025,1.914,19.607,5.369,28.421
		c3.801,9.696,9.479,18.452,16.596,25.819c10.913,11.296,25.183,19.332,41.193,22.458v29.042
		C141.383,223.434,129.454,218.74,115.402,218.74z"/>
</g>
<g>
</g>
<g>
</g>
<g>
</g>
<g>
</g>
<g>
</g>
<g>
</g>
<g>
</g>
<g>
</g>
<g>
</g>
<g>
</g>
<g>
</g>
<g>
</g>
<g>
</g>
<g>
</g>
<g>
</g>
</svg>
