<?xml version="1.0" encoding="iso-8859-1"?>
<!-- Generator: Adobe Illustrator 19.0.0, SVG Export Plug-In . SVG Version: 6.00 Build 0)  -->
<svg version="1.1" id="Layer_1" xmlns="http://www.w3.org/2000/svg" xmlns:xlink="http://www.w3.org/1999/xlink" x="0px" y="0px"
	 viewBox="0 0 330 330" style="enable-background:new 0 0 330 330;" xml:space="preserve">
<g id="XMLID_222_">
	<path id="XMLID_223_" d="M86.018,109.919l69.264,69.263c6.679-11.895,10.272-25.401,10.272-39.182
		c0-38.984-28.035-71.525-64.999-78.569v-46.42c0-8.284-6.716-15-15-15s-15,6.716-15,15v46.42C33.59,68.474,5.554,101.015,5.554,140
		c0,14.009,3.714,27.735,10.608,39.773L86.018,109.919z"/>
	<path id="XMLID_224_" d="M70.555,157.807l-56.159,56.16c1.165,5.995,3.086,31.79,5.728,37.29l50.432-39.839V157.807z"/>
	<path id="XMLID_225_" d="M156.857,213.184l-56.302-56.303v54.395l50.481,39.877C153.765,245.445,155.717,219.42,156.857,213.184z"
		/>
	<path id="XMLID_226_" d="M100.555,328.242c24.485-5.808,43.658-25.496,48.695-50.268l-48.695-38.467V328.242z"/>
	<path id="XMLID_227_" d="M70.555,328.242V239.65L21.881,278.1C26.957,302.814,46.11,322.444,70.555,328.242z"/>
	<path id="XMLID_228_" d="M288.819,25.629l-13.287,16.608L275.533,15c0.001-8.284-6.716-15-14.999-15h-0.001
		c-8.284,0-14.999,6.716-15,15l-0.001,27.24L232.244,25.63c-5.174-6.468-14.613-7.518-21.083-2.343
		c-6.47,5.175-7.518,14.614-2.343,21.083l22.859,28.575c-9.902,3.252-18.445,9.102-24.621,17.096
		c-6.533,8.457-10.063,18.875-10.395,29.958h29.987h6.34h7.542c8.284,0,15,6.716,15,15c0,8.284-6.716,15-15,15h-7.542h-31.004
		l44.032,168.787c1.723,6.605,7.688,11.214,14.514,11.214c6.826,0,12.791-4.609,14.514-11.214l31.239-119.749h-31.004
		c-5.69-2.13-9.749-7.602-9.749-14.036c0-8.284,6.716-15,15-15h2.324h31.004l8.564-32.835c4.49-17.212,1.422-34.389-8.418-47.125
		c-6.176-7.994-14.719-13.845-24.622-17.096l22.86-28.574c5.176-6.469,4.127-15.908-2.342-21.084
		C303.433,18.112,293.994,19.161,288.819,25.629z"/>
</g>
<g>
</g>
<g>
</g>
<g>
</g>
<g>
</g>
<g>
</g>
<g>
</g>
<g>
</g>
<g>
</g>
<g>
</g>
<g>
</g>
<g>
</g>
<g>
</g>
<g>
</g>
<g>
</g>
<g>
</g>
</svg>
