<?xml version="1.0" encoding="iso-8859-1"?>
<!-- Generator: Adobe Illustrator 19.0.0, SVG Export Plug-In . SVG Version: 6.00 Build 0)  -->
<svg version="1.1" id="Layer_1" xmlns="http://www.w3.org/2000/svg" xmlns:xlink="http://www.w3.org/1999/xlink" x="0px" y="0px"
	 viewBox="0 0 330 330" style="enable-background:new 0 0 330 330;" xml:space="preserve">
<g id="XMLID_15_">
	<path id="XMLID_16_" d="M60.001,170c33.084,0,60-26.916,60-60c0-8.309-2.521-23.983-24.328-63.998
		C84.297,25.128,73.099,7.635,72.627,6.901C69.868,2.601,65.11,0,60.001,0c-5.108,0-9.866,2.601-12.625,6.9
		c-0.471,0.734-11.67,18.228-23.045,39.102C2.523,86.017,0.001,101.692,0.001,110C0.001,143.084,26.917,170,60.001,170z"/>
	<path id="XMLID_17_" d="M315,100.001l-110-0.001c-3.988,0.001-7.814,1.59-10.629,4.415l-54.187,54.408l-28.854,28.854l0.019,0.019
		c-11.715,11.715-11.715,30.709,0.001,42.425c1.636,1.636,3.417,3.034,5.297,4.213c11.584,7.265,27.048,5.865,37.126-4.214
		l0.02,0.02l10.48-10.481l18.374-18.372l6.891-6.892c5.857-5.856,15.355-5.857,21.213,0.001c5.857,5.858,5.859,15.355,0,21.213
		l-50.001,49.999c-2.811,2.814-6.628,4.395-10.605,4.394L2.58,270.001C0.915,274.696,0,279.742,0,285c0,24.813,20.188,45,45,45
		h130.001c3.416,0,6.566-1.143,9.088-3.066c0.533-0.406,1.041-0.85,1.52-1.329l105.606-105.603L315,220.002
		c8.283,0,15-6.717,15-15.001V115C330,106.717,323.284,100.001,315,100.001z"/>
</g>
<g>
</g>
<g>
</g>
<g>
</g>
<g>
</g>
<g>
</g>
<g>
</g>
<g>
</g>
<g>
</g>
<g>
</g>
<g>
</g>
<g>
</g>
<g>
</g>
<g>
</g>
<g>
</g>
<g>
</g>
</svg>
