<?xml version="1.0" encoding="iso-8859-1"?>
<!-- Generator: Adobe Illustrator 19.0.0, SVG Export Plug-In . SVG Version: 6.00 Build 0)  -->
<svg version="1.1" id="Layer_1" xmlns="http://www.w3.org/2000/svg" xmlns:xlink="http://www.w3.org/1999/xlink" x="0px" y="0px"
	 viewBox="0 0 330.188 330.188" style="enable-background:new 0 0 330.188 330.188;" xml:space="preserve">
<g id="XMLID_229_">
	<path id="XMLID_230_" d="M150,110.823V75.094v-60c0-8.284-6.716-15-15-15c-8.284,0-15,6.716-15,15v50.729l-30,15V15.094
		c0-8.284-6.716-15-15-15c-8.284,0-15,6.716-15,15v65.729l-30-15V15.094c0-8.284-6.716-15-15-15c-8.284,0-15,6.716-15,15v60v35.729
		l75,37.5L150,110.823z"/>
	<path id="XMLID_231_" d="M60,315.094c0,8.284,6.716,15,15,15c8.284,0,15-6.716,15-15v-80.73l51.708-25.854
		c5.082-2.541,8.292-7.735,8.292-13.417v-50.73l-75,37.5l-75-37.5v50.73c0,5.682,3.21,10.876,8.292,13.417L60,234.364V315.094z"/>
	<path id="XMLID_232_" d="M315.188,0.094c-8.284,0-15,6.716-15,15v50.729l-30,15V15.094c0-8.284-6.716-15-15-15
		c-8.284,0-15,6.716-15,15v65.729l-30-15V15.094c0-8.284-6.716-15-15-15c-8.284,0-15,6.716-15,15v60v35.729l75,37.5l75-37.5V75.094
		v-60C330.188,6.81,323.472,0.094,315.188,0.094z"/>
	<path id="XMLID_233_" d="M180.188,144.364v50.73c0,5.682,3.21,10.876,8.292,13.417l51.708,25.854v80.73c0,8.284,6.716,15,15,15
		c8.284,0,15-6.716,15-15v-80.73l51.708-25.854c5.082-2.541,8.292-7.735,8.292-13.417v-50.73l-75,37.5L180.188,144.364z"/>
</g>
<g>
</g>
<g>
</g>
<g>
</g>
<g>
</g>
<g>
</g>
<g>
</g>
<g>
</g>
<g>
</g>
<g>
</g>
<g>
</g>
<g>
</g>
<g>
</g>
<g>
</g>
<g>
</g>
<g>
</g>
</svg>
